<?xml version="1.0" encoding="iso-8859-1"?>
<!-- Generator: Adobe Illustrator 19.0.0, SVG Export Plug-In . SVG Version: 6.00 Build 0)  -->
<svg xmlns="http://www.w3.org/2000/svg" xmlns:xlink="http://www.w3.org/1999/xlink" version="1.1" id="Capa_1" x="0px" y="0px" viewBox="0 0 512 512" style="enable-background:new 0 0 512 512;" xml:space="preserve" width="512" height="512">
<g>
	<g>
		<g>
			<path style="fill:#EBEEF2;" d="M317.255,50.271H85.202c-8.854,0-16.031,7.178-16.031,16.031v326.826     c0,8.854,7.178,16.031,16.031,16.031h232.053c8.854,0,16.031-7.178,16.031-16.031V66.302     C333.286,57.449,326.109,50.271,317.255,50.271z"/>
			<path style="fill:#D1D6DE;" d="M317.255,50.271h-25.633c8.854,0,16.031,7.177,16.031,16.031v326.826     c0,8.854-7.177,16.031-16.031,16.031h25.633c8.854,0,16.031-7.177,16.031-16.031V66.302     C333.286,57.449,326.109,50.271,317.255,50.271z"/>
			<path style="fill:#F2DF33;" d="M146.642,44.871v23.423c0,4.026,3.264,7.29,7.29,7.29h94.592c4.026,0,7.29-3.264,7.29-7.29V44.871     c0-4.026-3.264-7.29-7.29-7.29h-94.592C149.906,37.581,146.642,40.845,146.642,44.871z"/>
		</g>
		<g>
			<path style="fill:#ED5575;" d="M442.83,415.06v-40.207l-25.522-3.906c-1.849-6.481-4.417-12.656-7.63-18.427l15.283-20.807     l-28.43-28.43l-20.807,15.283c-5.772-3.213-11.946-5.781-18.427-7.63l-3.906-25.522h-40.207l-3.906,25.522     c-6.481,1.849-12.656,4.417-18.427,7.63l-20.807-15.283l-28.43,28.43l15.283,20.807c-3.213,5.772-5.781,11.946-7.63,18.427     l-25.522,3.906v40.207l25.522,3.906c1.849,6.481,4.417,12.656,7.63,18.427L241.612,458.2l28.43,28.431l20.807-15.283     c5.771,3.213,11.946,5.781,18.427,7.63l3.906,25.522h40.207l3.906-25.522c6.481-1.849,12.656-4.417,18.427-7.63l20.807,15.283     l28.43-28.431l-15.283-20.807c3.213-5.772,5.781-11.946,7.63-18.427L442.83,415.06z M333.286,441.789     c-25.865,0-46.832-20.968-46.832-46.833s20.968-46.833,46.832-46.833c25.865,0,46.833,20.968,46.833,46.833     S359.151,441.789,333.286,441.789z"/>
			<path style="fill:#CC3A60;" d="M333.286,330.576c-35.556,0-64.381,28.824-64.381,64.381c0,35.557,28.824,64.381,64.381,64.381     s64.381-28.824,64.381-64.381C397.667,359.4,368.843,330.576,333.286,330.576z M333.286,441.789     c-25.865,0-46.832-20.968-46.832-46.833c0-25.865,20.968-46.833,46.832-46.833c25.865,0,46.833,20.968,46.833,46.833     C380.119,420.821,359.151,441.789,333.286,441.789z"/>
		</g>
		<g>
			<g>
				<path style="fill:#F9C295;" d="M201.229,117.421L201.229,117.421c-20.114,0-36.419,16.306-36.419,36.419v17.558      c0,20.114,16.306,36.419,36.419,36.419l0,0c20.114,0,36.419-16.306,36.419-36.419V153.84      C237.648,133.726,221.342,117.421,201.229,117.421z"/>
				<path style="fill:#5C9CEE;" d="M255.149,266.072c-15.376,10.437-33.935,16.533-53.921,16.533s-38.545-6.096-53.921-16.533      c1.756-15.054,12.176-27.443,26.127-32.106l-0.015-0.023c0.479-0.16,0.958-0.309,1.437-0.449c0.09-0.03,0.17-0.05,0.259-0.08      c0.409-0.11,0.828-0.22,1.247-0.329c0.479-0.12,0.978-0.229,1.467-0.329c0.03-0.01,0.06-0.01,0.08-0.02      c0.489-0.1,0.988-0.19,1.487-0.269c0.449-0.08,0.908-0.15,1.377-0.21c0.07-0.01,0.15-0.02,0.229-0.03      c0.499-0.06,0.998-0.11,1.507-0.15c0.399-0.03,0.798-0.06,1.197-0.08c0.2-0.01,0.389-0.02,0.589-0.02      c0.459-0.02,0.928-0.03,1.397-0.03h31.071c0.469,0,0.938,0.01,1.397,0.03c0.2,0,0.389,0.01,0.589,0.02      c0.399,0.02,0.798,0.05,1.197,0.08c0.509,0.04,1.008,0.09,1.507,0.15c0.08,0.01,0.16,0.02,0.229,0.03      c0.469,0.06,0.928,0.13,1.377,0.21c0.499,0.08,0.998,0.17,1.487,0.269c0.02,0.01,0.05,0.01,0.08,0.02      c0.489,0.1,0.988,0.21,1.467,0.329c0.419,0.11,0.838,0.219,1.247,0.329c0.09,0.03,0.17,0.05,0.259,0.08      c0.479,0.14,0.958,0.289,1.437,0.449l-0.015,0.023C242.974,238.629,253.393,251.018,255.149,266.072z"/>
				<path style="fill:#444966;" d="M224.938,126.186c-2.624-2.248-5.568-4.125-8.719-5.54c-20.804-9.344-45.03,3.089-50.404,24.964      c-0.929,3.784-1.272,7.715-0.946,11.599c8.287,3.653,17.733,4.622,26.589,2.726c8.856-1.896,17.078-6.646,23.144-13.371      c5.08,7.778,13.74,13.111,22.972,14.147c0.813-8.61-0.551-17.563-4.821-25.083C230.724,132.055,228.057,128.858,224.938,126.186      z"/>
			</g>
		</g>
		<circle style="fill:#9FD479;" cx="392.417" cy="139.159" r="19.268"/>
		<circle style="fill:#9FD479;" cx="392.417" cy="227.086" r="19.268"/>
	</g>
	<g>
		<path d="M333.287,371.832c-4.143,0-7.5,3.357-7.5,7.5v13.796c0,3.521-2.209,6.727-5.498,7.979    c-3.871,1.474-5.814,5.807-4.34,9.678c1.139,2.993,3.987,4.833,7.01,4.833c0.887,0,1.79-0.158,2.668-0.493    c9.067-3.452,15.16-12.292,15.16-21.996v-13.796C340.787,375.189,337.429,371.832,333.287,371.832z"/>
		<path d="M193.57,401.659H85.202c-4.703,0-8.53-3.827-8.53-8.531V118.664c0-4.143-3.357-7.5-7.5-7.5s-7.5,3.357-7.5,7.5v274.464    c0,12.976,10.556,23.531,23.53,23.531H193.57c4.143,0,7.5-3.357,7.5-7.5S197.712,401.659,193.57,401.659z"/>
		<path d="M69.17,94.49c4.143,0,7.5-3.357,7.5-7.5V66.3c0-4.704,3.826-8.53,8.53-8.53h53.941v10.524    c0,8.155,6.635,14.79,14.79,14.79h94.593c8.155,0,14.79-6.635,14.79-14.79V57.77h53.936c4.709,0,8.54,3.827,8.54,8.53v41.181    c0,4.143,3.357,7.5,7.5,7.5s7.5-3.357,7.5-7.5V66.3c0-12.975-10.56-23.53-23.54-23.53h-54.103    c-1.026-7.161-7.183-12.688-14.623-12.688h-10.468C234.571,12.94,219.384,0,201.229,0s-33.342,12.94-36.828,30.081h-10.469    c-7.44,0-13.597,5.528-14.623,12.688H85.201c-12.975,0-23.53,10.556-23.53,23.53v20.69C61.67,91.133,65.028,94.49,69.17,94.49z     M201.229,15c9.823,0,18.202,6.306,21.301,15.081h-42.602C183.027,21.306,191.406,15,201.229,15z M154.142,45.081h17.006h60.162    h17.005v5.092c0,0.032-0.005,0.064-0.005,0.097s0.004,0.064,0.005,0.097v17.718h-94.173V45.081z"/>
		<path d="M340.787,195.408v-24.569c0-4.143-3.357-7.5-7.5-7.5s-7.5,3.357-7.5,7.5v24.569c0,4.143,3.357,7.5,7.5,7.5    S340.787,199.551,340.787,195.408z"/>
		<path d="M333.287,340.624c-29.959,0-54.333,24.373-54.333,54.332s24.374,54.333,54.333,54.333s54.332-24.374,54.332-54.333    S363.246,340.624,333.287,340.624z M333.287,434.289c-21.688,0-39.333-17.645-39.333-39.333c0-21.688,17.645-39.332,39.333-39.332    c21.688,0,39.332,17.645,39.332,39.332C372.619,416.645,354.974,434.289,333.287,434.289z"/>
		<path d="M443.964,367.438l-20.9-3.198c-1.293-3.781-2.821-7.475-4.573-11.049l12.515-17.039c2.192-2.984,1.878-7.123-0.74-9.742    l-2.671-2.672c-2.929-2.929-7.677-2.931-10.607-0.002c-2.245,2.245-2.77,5.561-1.573,8.305l-11.78,16.039    c-1.736,2.364-1.936,5.524-0.508,8.088c2.948,5.296,5.294,10.961,6.971,16.837c0.805,2.819,3.179,4.911,6.077,5.355l19.156,2.932    v27.328l-19.156,2.932c-2.898,0.444-5.272,2.536-6.077,5.355c-1.677,5.876-4.022,11.541-6.971,16.838    c-1.428,2.563-1.229,5.724,0.508,8.088l11.471,15.617l-19.323,19.324l-15.618-11.472c-2.361-1.734-5.523-1.935-8.089-0.508    c-5.294,2.949-10.958,5.294-16.835,6.971c-2.82,0.804-4.912,3.179-5.356,6.077L346.951,497h-27.328l-2.932-19.157    c-0.444-2.898-2.537-5.273-5.357-6.077c-5.875-1.676-11.539-4.021-16.836-6.971c-2.563-1.426-5.725-1.229-8.088,0.508    l-15.617,11.472l-19.324-19.324l11.472-15.617c1.736-2.364,1.936-5.524,0.508-8.088c-2.95-5.3-5.296-10.965-6.971-16.836    c-0.804-2.82-3.179-4.913-6.077-5.357l-19.157-2.932v-27.328l19.157-2.932c2.898-0.444,5.273-2.536,6.077-5.356    c1.676-5.872,4.021-11.536,6.971-16.836c1.428-2.563,1.229-5.724-0.508-8.089l-11.472-15.616l19.324-19.324l15.617,11.471    c2.363,1.736,5.524,1.935,8.088,0.508c5.297-2.948,10.962-5.294,16.838-6.971c2.819-0.805,4.911-3.179,5.355-6.077l2.932-19.156    h27.328l2.932,19.156c0.444,2.898,2.536,5.272,5.355,6.077c5.876,1.677,11.541,4.022,16.837,6.971    c2.565,1.427,5.725,1.229,8.088-0.508l15.619-11.472c2.936,2.844,7.619,2.815,10.521-0.084c2.929-2.93,2.929-7.678,0-10.607    l-4.468-4.468c-2.619-2.619-6.758-2.932-9.743-0.741l-17.04,12.515c-3.574-1.752-7.268-3.28-11.049-4.573l-3.198-20.9    c-0.561-3.661-3.71-6.365-7.414-6.365h-12.604v-19.147c0-4.143-3.357-7.5-7.5-7.5s-7.5,3.357-7.5,7.5v19.147h-12.604    c-3.704,0-6.854,2.704-7.414,6.365l-3.198,20.9c-3.781,1.292-7.476,2.821-11.05,4.573l-17.039-12.515    c-2.985-2.191-7.124-1.878-9.743,0.741l-28.431,28.431c-2.619,2.619-2.934,6.759-0.741,9.744l12.516,17.038    c-1.753,3.575-3.281,7.269-4.573,11.049l-20.901,3.198c-3.661,0.561-6.365,3.71-6.365,7.414v40.207    c0,3.704,2.704,6.854,6.365,7.414l20.901,3.198c1.291,3.78,2.82,7.474,4.573,11.05l-12.516,17.039    c-2.192,2.984-1.878,7.124,0.741,9.743l28.431,28.431c2.62,2.619,6.759,2.933,9.743,0.741l17.039-12.516    c3.574,1.753,7.269,3.281,11.05,4.573l3.198,20.901c0.561,3.661,3.71,6.365,7.414,6.365h40.207c3.704,0,6.854-2.704,7.414-6.365    l3.198-20.901c3.782-1.292,7.476-2.82,11.049-4.573l17.04,12.516c2.984,2.19,7.123,1.878,9.743-0.742l28.43-28.431    c2.619-2.618,2.934-6.757,0.741-9.742l-12.515-17.039c1.752-3.574,3.281-7.269,4.573-11.05l20.9-3.198    c3.661-0.561,6.365-3.71,6.365-7.414v-40.207C450.33,371.148,447.625,367.999,443.964,367.438z"/>
		<path d="M244.779,149.202c-0.588-4.185-1.567-8.291-3.145-12.212c-4.874-12.107-15.571-21.685-28.106-25.32    c-20.904-6.061-45.04,4.825-52.778,25.45c-2.94,7.835-3.759,16.309-3.871,24.677c-0.124,9.256,0.632,18.718,4.257,27.235    c4.697,11.035,14.25,19.874,25.578,23.814s24.252,2.955,34.908-2.55c8.27-4.273,15.182-11.231,19.108-19.672    c3.963-8.52,4.815-18.146,4.852-27.543C245.598,158.456,245.423,153.782,244.779,149.202z M202.826,125.038    c3.59,0.182,7.141,1.009,10.399,2.496c9.052,4.131,15.637,13.236,16.726,23.127c-2.918-1.478-5.507-3.6-7.529-6.17    c-1.166-1.482-2.178-3.143-3.715-4.235c-1.771-1.257-4.156-1.6-6.209-0.892c-2.276,0.785-3.952,2.679-5.703,4.333    c-8.973,8.48-22.557,11.747-34.405,8.273c-1.528-0.448,3.34-11.708,3.941-12.733c2.304-3.93,5.522-7.318,9.361-9.778    C190.732,126.23,196.835,124.734,202.826,125.038z M201.229,200.318c-15.946,0-28.92-12.974-28.92-28.92v-4    c3.281,0.657,6.629,0.998,10.027,0.998c11.511,0,22.638-3.926,31.573-10.972c4.559,4.431,10.122,7.663,16.238,9.429v4.544    C230.148,187.345,217.175,200.318,201.229,200.318z"/>
		<path d="M262.599,265.203c-2.033-17.422-13.988-32.313-30.542-38.125c-0.209-0.092-0.424-0.175-0.644-0.248    c-0.54-0.181-1.079-0.35-1.62-0.509c-0.056-0.018-0.112-0.034-0.171-0.052c-0.114-0.036-0.229-0.07-0.345-0.101l-1.358-0.358    c-0.528-0.133-1.077-0.255-1.619-0.367c-0.085-0.021-0.171-0.04-0.257-0.058c-0.572-0.116-1.155-0.222-1.739-0.315    c-0.548-0.097-1.105-0.182-1.678-0.254l-0.284-0.037c-0.599-0.071-1.195-0.131-1.828-0.181c-0.46-0.035-0.92-0.068-1.423-0.094    c-0.249-0.013-0.49-0.022-0.736-0.026c-0.523-0.021-1.058-0.031-1.591-0.031h-31.071c-0.533,0-1.066,0.011-1.591,0.032    c-0.248,0.003-0.496,0.014-0.779,0.027c-0.46,0.023-0.919,0.057-1.401,0.094c-0.609,0.048-1.208,0.107-1.826,0.181l-0.267,0.035    c-0.57,0.072-1.129,0.158-1.677,0.254c-0.583,0.094-1.166,0.199-1.738,0.315c-0.086,0.018-0.172,0.037-0.257,0.058    c-0.543,0.112-1.098,0.236-1.688,0.385l-1.289,0.341c-0.113,0.029-0.225,0.063-0.336,0.098c-0.061,0.018-0.122,0.036-0.184,0.056    c-0.54,0.159-1.081,0.328-1.621,0.509c-0.215,0.072-0.425,0.153-0.631,0.244c-16.559,5.811-28.518,20.704-30.55,38.128    c-0.324,2.777,0.924,5.505,3.237,7.074c17.183,11.663,37.285,17.828,58.133,17.828c20.847,0,40.949-6.165,58.133-17.827    C261.675,270.708,262.923,267.98,262.599,265.203z M201.229,275.105c-16.199,0-31.868-4.349-45.613-12.619    c2.688-9.93,10.247-18.082,20.197-21.407c0.177-0.06,0.35-0.125,0.521-0.196c0.208-0.065,0.417-0.128,0.625-0.189    c0.057-0.017,0.114-0.033,0.171-0.052c0.02-0.006,0.039-0.012,0.059-0.018l1.002-0.265c0.371-0.093,0.758-0.177,1.137-0.254    c0.078-0.017,0.156-0.033,0.233-0.052c0.334-0.065,0.673-0.126,1.011-0.18c0.048-0.007,0.095-0.016,0.143-0.023    c0.328-0.059,0.663-0.11,1.093-0.165l0.086-0.012c0.399-0.048,0.799-0.088,1.185-0.118c0.339-0.025,0.677-0.051,1.025-0.069    l0.194-0.009c0.111,0,0.224-0.003,0.335-0.008c0.349-0.016,0.705-0.022,1.062-0.022h31.071c0.356,0,0.714,0.007,1.063,0.022    c0.111,0.005,0.207,0.008,0.318,0.008l0.22,0.01c0.339,0.018,0.678,0.043,0.994,0.066c0.407,0.032,0.807,0.072,1.278,0.13    c0.034,0.005,0.068,0.01,0.103,0.014c0.343,0.043,0.677,0.095,1.004,0.153c0.048,0.008,0.095,0.017,0.143,0.023    c0.338,0.054,0.677,0.114,1.011,0.18c0.077,0.019,0.155,0.035,0.233,0.052c0.379,0.077,0.766,0.161,1.072,0.237l1.068,0.281    c0.016,0.005,0.032,0.01,0.048,0.015c0.062,0.02,0.123,0.038,0.184,0.057c0.206,0.06,0.412,0.122,0.617,0.187    c0.172,0.071,0.347,0.138,0.525,0.197c9.948,3.325,17.509,11.478,20.197,21.407C233.096,270.757,217.428,275.105,201.229,275.105z    "/>
		<path d="M287.668,131.658c-4.143,0-7.5,3.357-7.5,7.5s3.357,7.5,7.5,7.5h79.059c3.252,11.12,13.534,19.268,25.69,19.268    c14.76,0,26.768-12.008,26.768-26.768s-12.008-26.768-26.768-26.768c-12.156,0-22.439,8.148-25.69,19.268H287.668z     M392.417,127.391c6.488,0,11.768,5.279,11.768,11.768s-5.279,11.768-11.768,11.768s-11.768-5.279-11.768-11.768    S385.929,127.391,392.417,127.391z"/>
		<path d="M280.168,227.086c0,4.143,3.357,7.5,7.5,7.5h79.059c3.252,11.12,13.534,19.268,25.69,19.268    c14.76,0,26.768-12.008,26.768-26.768s-12.008-26.768-26.768-26.768c-12.156,0-22.439,8.148-25.69,19.268h-79.059    C283.526,219.586,280.168,222.943,280.168,227.086z M392.417,215.318c6.488,0,11.768,5.279,11.768,11.768    s-5.279,11.768-11.768,11.768s-11.768-5.279-11.768-11.768S385.929,215.318,392.417,215.318z"/>
	</g>
</g>















</svg>
