<svg xmlns="http://www.w3.org/2000/svg" height="371pt" version="1.1" viewBox="0 1 371 371.77956" width="371pt">
<g id="surface1">
<path d="M 118.183594 322.324219 C 118.183594 332.605469 109.851562 340.9375 99.570312 340.9375 C 89.289062 340.9375 80.953125 332.605469 80.953125 322.324219 C 80.953125 312.042969 89.289062 303.707031 99.570312 303.707031 C 109.851562 303.707031 118.183594 312.042969 118.183594 322.324219 Z M 118.183594 322.324219 " style=" stroke:none;fill-rule:nonzero;fill:rgb(50.196078%,46.27451%,30.196078%);fill-opacity:1;" />
<path d="M 316.542969 322.324219 C 316.542969 332.605469 308.210938 340.9375 297.929688 340.9375 C 287.648438 340.9375 279.316406 332.605469 279.316406 322.324219 C 279.316406 312.042969 287.648438 303.707031 297.929688 303.707031 C 308.210938 303.707031 316.542969 312.042969 316.542969 322.324219 Z M 316.542969 322.324219 " style=" stroke:none;fill-rule:nonzero;fill:rgb(50.196078%,46.27451%,30.196078%);fill-opacity:1;" />
<path d="M 223.46875 86.734375 L 223.46875 62.011719 L 192.84375 62.011719 C 210.058594 106.75 187.742188 156.988281 143.105469 174.203125 C 98.46875 191.417969 48.128906 169.101562 30.914062 124.363281 C 23.207031 104.246094 23.207031 82.03125 30.914062 62.011719 L 6.59375 62.011719 L 6.59375 278.988281 L 40.824219 278.988281 C 57.9375 253.367188 92.5625 246.460938 118.183594 263.574219 C 124.289062 267.679688 129.492188 272.882812 133.597656 278.988281 L 239.183594 278.988281 C 256.296875 253.367188 290.925781 246.460938 316.542969 263.574219 C 322.648438 267.679688 327.855469 272.882812 331.957031 278.988281 L 366.183594 278.988281 L 366.183594 198.421875 L 223.46875 198.421875 Z M 223.46875 86.734375 " style=" stroke:none;fill-rule:nonzero;fill:rgb(0%,84.313725%,87.45098%);fill-opacity:1;" />
<path d="M 223.46875 86.734375 L 223.46875 198.324219 L 366.085938 198.324219 L 335.058594 86.734375 Z M 223.46875 86.734375 " style=" stroke:none;fill-rule:nonzero;fill:rgb(100%,92.156863%,60%);fill-opacity:1;" />
<path d="M 87.160156 254.167969 C 68.542969 254.167969 51.128906 263.476562 40.824219 278.988281 C 23.707031 304.609375 30.613281 339.238281 56.234375 356.351562 C 81.855469 373.464844 116.484375 366.558594 133.597656 340.9375 C 146.105469 322.125 146.105469 297.703125 133.597656 278.886719 C 123.1875 263.375 105.773438 254.066406 87.160156 254.167969 Z M 87.160156 328.527344 C 76.851562 328.527344 68.542969 320.222656 68.542969 309.914062 C 68.542969 299.605469 76.851562 291.296875 87.160156 291.296875 C 97.46875 291.296875 105.773438 299.605469 105.773438 309.914062 C 105.773438 320.222656 97.367188 328.527344 87.160156 328.527344 Z M 87.160156 328.527344 " style=" stroke:none;fill-rule:nonzero;fill:rgb(100%,92.156863%,60%);fill-opacity:1;" />
<path d="M 285.519531 254.167969 C 266.90625 254.167969 249.492188 263.476562 239.183594 278.988281 C 222.070312 304.609375 228.972656 339.238281 254.59375 356.351562 C 280.214844 373.464844 314.84375 366.558594 331.957031 340.9375 C 344.46875 322.125 344.46875 297.703125 331.957031 278.886719 C 321.550781 263.375 304.136719 254.066406 285.519531 254.167969 Z M 285.519531 328.527344 C 275.210938 328.527344 266.90625 320.222656 266.90625 309.914062 C 266.90625 299.605469 275.210938 291.296875 285.519531 291.296875 C 295.828125 291.296875 304.136719 299.605469 304.136719 309.914062 C 304.035156 320.222656 295.726562 328.527344 285.519531 328.527344 Z M 285.519531 328.527344 " style=" stroke:none;fill-rule:nonzero;fill:rgb(100%,92.156863%,60%);fill-opacity:1;" />
<path d="M 105.773438 309.914062 C 105.773438 320.195312 97.441406 328.527344 87.160156 328.527344 C 76.878906 328.527344 68.542969 320.195312 68.542969 309.914062 C 68.542969 299.632812 76.878906 291.296875 87.160156 291.296875 C 97.441406 291.296875 105.773438 299.632812 105.773438 309.914062 Z M 105.773438 309.914062 " style=" stroke:none;fill-rule:nonzero;fill:rgb(40%,90.588235%,92.54902%);fill-opacity:1;" />
<path d="M 304.136719 309.914062 C 304.136719 320.195312 295.800781 328.527344 285.519531 328.527344 C 275.238281 328.527344 266.90625 320.195312 266.90625 309.914062 C 266.90625 299.632812 275.238281 291.296875 285.519531 291.296875 C 295.800781 291.296875 304.136719 299.632812 304.136719 309.914062 Z M 304.136719 309.914062 " style=" stroke:none;fill-rule:nonzero;fill:rgb(40%,90.588235%,92.54902%);fill-opacity:1;" />
<path d="M 111.878906 179.707031 C 159.71875 179.808594 198.550781 141.078125 198.648438 93.238281 C 198.648438 82.53125 196.75 71.921875 192.84375 61.914062 C 175.832031 17.175781 125.691406 -5.242188 80.953125 11.773438 C 57.835938 20.578125 39.621094 38.792969 30.8125 61.914062 C 13.601562 106.550781 35.820312 156.691406 80.453125 173.902344 C 90.5625 177.808594 101.171875 179.808594 111.878906 179.707031 Z M 111.878906 92.9375 Z M 111.878906 92.9375 " style=" stroke:none;fill-rule:nonzero;fill:rgb(100%,31.372549%,13.72549%);fill-opacity:1;" />
<path d="M 105.773438 99.144531 L 105.773438 148.785156 L 118.085938 148.785156 L 118.085938 99.144531 L 173.929688 99.144531 L 173.929688 86.734375 L 118.085938 86.734375 L 118.085938 30.988281 L 105.773438 30.988281 L 105.773438 86.734375 L 49.929688 86.734375 L 49.929688 99.144531 Z M 105.773438 99.144531 " style=" stroke:none;fill-rule:nonzero;fill:rgb(40%,90.588235%,92.54902%);fill-opacity:1;" />
<path d="M 105.773438 99.144531 L 105.773438 148.785156 L 118.085938 148.785156 L 118.085938 99.144531 L 173.929688 99.144531 L 173.929688 86.734375 L 118.085938 86.734375 L 118.085938 30.988281 L 105.773438 30.988281 L 105.773438 86.734375 L 49.929688 86.734375 L 49.929688 99.144531 Z M 105.773438 99.144531 " style=" stroke:none;fill-rule:nonzero;fill:rgb(13.72549%,12.156863%,12.54902%);fill-opacity:1;" />
<path d="M 372.089844 197.324219 C 372.089844 197.121094 372.089844 196.820312 372.089844 196.621094 L 341.066406 85.03125 C 340.363281 82.328125 337.863281 80.527344 335.058594 80.527344 L 229.675781 80.527344 L 229.675781 62.011719 C 229.675781 58.609375 226.871094 55.808594 223.46875 55.808594 L 197.046875 55.808594 C 176.53125 8.769531 121.789062 -12.746094 74.75 7.769531 C 53.234375 17.175781 36.117188 34.292969 26.710938 55.808594 L 6.59375 55.808594 C 3.191406 55.808594 0.390625 58.609375 0.390625 62.011719 L 0.390625 278.988281 C 0.390625 282.390625 3.191406 285.195312 6.59375 285.195312 L 30.3125 285.195312 C 16.601562 316.519531 30.8125 353.148438 62.238281 366.859375 C 93.566406 380.570312 130.195312 366.359375 143.90625 334.933594 C 150.8125 319.121094 150.8125 301.007812 143.90625 285.195312 L 228.675781 285.195312 C 214.964844 316.519531 229.175781 353.148438 260.601562 366.859375 C 291.925781 380.570312 328.554688 366.359375 342.265625 334.933594 C 349.171875 319.121094 349.171875 301.007812 342.265625 285.195312 L 366.085938 285.195312 C 369.488281 285.195312 372.289062 282.390625 372.289062 278.988281 L 372.289062 198.421875 C 372.191406 198.023438 372.191406 197.722656 372.089844 197.324219 Z M 330.355469 92.9375 L 357.878906 192.117188 L 229.675781 192.117188 L 229.675781 92.9375 Z M 111.878906 12.375 C 156.414062 12.375 192.445312 48.402344 192.445312 92.9375 C 192.445312 137.472656 156.414062 173.503906 111.878906 173.503906 C 67.34375 173.503906 31.316406 137.472656 31.316406 92.9375 C 31.414062 48.503906 67.445312 12.472656 111.878906 12.375 Z M 87.160156 359.453125 C 59.738281 359.453125 37.621094 337.234375 37.621094 309.914062 C 37.621094 282.492188 59.835938 260.375 87.160156 260.375 C 114.480469 260.375 136.699219 282.589844 136.699219 309.914062 C 136.699219 337.234375 114.480469 359.453125 87.160156 359.453125 Z M 285.519531 359.453125 C 258.097656 359.453125 235.980469 337.234375 235.980469 309.914062 C 235.980469 282.492188 258.199219 260.375 285.519531 260.375 C 312.941406 260.375 335.058594 282.589844 335.058594 309.914062 C 335.058594 337.234375 312.84375 359.453125 285.519531 359.453125 Z M 359.878906 272.683594 L 334.960938 272.683594 C 314.542969 245.359375 275.8125 239.757812 248.488281 260.171875 C 243.785156 263.675781 239.484375 267.980469 235.980469 272.683594 L 136.601562 272.683594 C 116.183594 245.359375 77.453125 239.757812 50.128906 260.171875 C 45.425781 263.675781 41.121094 267.980469 37.621094 272.683594 L 12.699219 272.683594 L 12.699219 68.117188 L 22.308594 68.117188 C 8.496094 117.558594 37.320312 168.898438 86.757812 182.8125 C 136.199219 196.722656 187.539062 167.898438 201.453125 118.457031 C 206.054688 102.046875 206.054688 84.632812 201.453125 68.21875 L 217.265625 68.21875 L 217.265625 198.421875 C 217.265625 201.828125 220.066406 204.628906 223.46875 204.628906 L 359.878906 204.628906 Z M 359.878906 272.683594 " style=" stroke:none;fill-rule:nonzero;fill:rgb(13.72549%,12.156863%,12.54902%);fill-opacity:1;" />
<path d="M 87.160156 285.09375 C 73.449219 285.09375 62.339844 296.203125 62.339844 309.914062 C 62.339844 323.625 73.449219 334.734375 87.160156 334.734375 C 100.871094 334.734375 111.980469 323.625 111.980469 309.914062 C 111.878906 296.203125 100.871094 285.09375 87.160156 285.09375 Z M 87.160156 322.324219 C 80.355469 322.324219 74.75 316.820312 74.75 309.914062 C 74.75 303.007812 80.253906 297.503906 87.160156 297.503906 C 94.066406 297.503906 99.570312 303.007812 99.570312 309.914062 C 99.570312 316.71875 93.964844 322.324219 87.160156 322.324219 Z M 87.160156 322.324219 " style=" stroke:none;fill-rule:nonzero;fill:rgb(13.72549%,12.156863%,12.54902%);fill-opacity:1;" />
<path d="M 285.519531 285.09375 C 271.808594 285.09375 260.699219 296.203125 260.699219 309.914062 C 260.699219 323.625 271.808594 334.734375 285.519531 334.734375 C 299.230469 334.734375 310.339844 323.625 310.339844 309.914062 C 310.238281 296.203125 299.128906 285.09375 285.519531 285.09375 Z M 285.519531 322.324219 C 278.714844 322.324219 273.109375 316.820312 273.109375 309.914062 C 273.109375 303.007812 278.613281 297.503906 285.519531 297.503906 C 292.425781 297.503906 297.929688 303.007812 297.929688 309.914062 C 297.929688 316.820312 292.324219 322.324219 285.519531 322.324219 Z M 285.519531 322.324219 " style=" stroke:none;fill-rule:nonzero;fill:rgb(13.72549%,12.156863%,12.54902%);fill-opacity:1;" />
</g>
</svg>