<svg id="Icon_Set" enable-background="new 0 0 64 64" height="512" viewBox="0 0 64 64" width="512" xmlns="http://www.w3.org/2000/svg"><path d="m28 35h-20v-8c0-3.314 2.686-6 6-6h10c2.209 0 4 1.791 4 4z" fill="#b51040"/><path d="m28 35.5h-20c-.276 0-.5-.224-.5-.5v-8c0-3.584 2.916-6.5 6.5-6.5h10c2.481 0 4.5 2.019 4.5 4.5v10c0 .276-.224.5-.5.5zm-19.5-1h19v-9.5c0-1.93-1.57-3.5-3.5-3.5h-10c-3.033 0-5.5 2.467-5.5 5.5z" fill="#212a41"/><path d="m32 31v-4c0-3.314-2.686-6-6-6h-8c-3.314 0-6 2.686-6 6v6c0 1.105.895 2 2 2h23v-4z" fill="#6c696f"/><path d="m37 35.5h-23c-1.378 0-2.5-1.122-2.5-2.5v-6c0-3.584 2.916-6.5 6.5-6.5h8c3.584 0 6.5 2.916 6.5 6.5v3.5h4.5c.276 0 .5.224.5.5v4c0 .276-.224.5-.5.5zm-19-14c-3.033 0-5.5 2.467-5.5 5.5v6c0 .827.673 1.5 1.5 1.5h22.5v-3h-4.5c-.276 0-.5-.224-.5-.5v-4c0-3.033-2.467-5.5-5.5-5.5z" fill="#212a41"/><path d="m22 28-3-7h6z" fill="#e0e0e0"/><path d="m22 28.5c-.2 0-.381-.119-.459-.303l-3-7c-.066-.154-.05-.332.042-.472.093-.14.25-.225.417-.225h6c.168 0 .325.084.417.225s.108.318.042.472l-3 7c-.078.184-.259.303-.459.303zm-2.242-7 2.242 5.23 2.242-5.23z" fill="#212a41"/><path d="m23 21h-2c-2.209 0-4-1.791-4-4v-4c0-2.209 1.791-4 4-4h2c2.209 0 4 1.791 4 4v4c0 2.209-1.791 4-4 4z" fill="#e0c8a4"/><path d="m23 21.5h-2c-2.481 0-4.5-2.019-4.5-4.5v-4c0-2.481 2.019-4.5 4.5-4.5h2c2.481 0 4.5 2.019 4.5 4.5v4c0 2.481-2.019 4.5-4.5 4.5zm-2-12c-1.93 0-3.5 1.57-3.5 3.5v4c0 1.93 1.57 3.5 3.5 3.5h2c1.93 0 3.5-1.57 3.5-3.5v-4c0-1.93-1.57-3.5-3.5-3.5z" fill="#212a41"/><path d="m45 38h-40c-.552 0-1-.448-1-1v-1c0-.552.448-1 1-1h40c.552 0 1 .448 1 1v1c0 .552-.448 1-1 1z" fill="#c2c2c2"/><path d="m45 38.5h-40c-.827 0-1.5-.673-1.5-1.5v-1c0-.827.673-1.5 1.5-1.5h40c.827 0 1.5.673 1.5 1.5v1c0 .827-.673 1.5-1.5 1.5zm-40-3c-.276 0-.5.224-.5.5v1c0 .276.224.5.5.5h40c.276 0 .5-.224.5-.5v-1c0-.276-.224-.5-.5-.5z" fill="#212a41"/><path d="m59 38h-40c-.552 0-1-.448-1-1v-1c0-.552.448-1 1-1h40c.552 0 1 .448 1 1v1c0 .552-.448 1-1 1z" fill="#e0e0e0"/><path d="m59 38.5h-40c-.827 0-1.5-.673-1.5-1.5v-1c0-.827.673-1.5 1.5-1.5h40c.827 0 1.5.673 1.5 1.5v1c0 .827-.673 1.5-1.5 1.5zm-40-3c-.276 0-.5.224-.5.5v1c0 .276.224.5.5.5h40c.276 0 .5-.224.5-.5v-1c0-.276-.224-.5-.5-.5z" fill="#212a41"/><path d="m41 60h-32c-.552 0-1-.448-1-1v-21h34v21c0 .552-.448 1-1 1z" fill="#c2c2c2"/><path d="m41 60.5h-32c-.827 0-1.5-.673-1.5-1.5v-21c0-.276.224-.5.5-.5h34c.276 0 .5.224.5.5v21c0 .827-.673 1.5-1.5 1.5zm-32.5-22v20.5c0 .276.224.5.5.5h32c.276 0 .5-.224.5-.5v-20.5z" fill="#212a41"/><path d="m55 60h-32c-.552 0-1-.448-1-1v-21h34v21c0 .552-.448 1-1 1z" fill="#e0e0e0"/><path d="m55 60.5h-32c-.827 0-1.5-.673-1.5-1.5v-21c0-.276.224-.5.5-.5h34c.276 0 .5.224.5.5v21c0 .827-.673 1.5-1.5 1.5zm-32.5-22v20.5c0 .276.224.5.5.5h32c.276 0 .5-.224.5-.5v-20.5z" fill="#212a41"/><path d="m21 35.5c-.276 0-.5-.224-.5-.5v-3.5h-4.5c-.276 0-.5-.224-.5-.5v-4c0-.276.224-.5.5-.5s.5.224.5.5v3.5h4.5c.276 0 .5.224.5.5v4c0 .276-.224.5-.5.5z" fill="#212a41"/><path d="m28 35.5c-.276 0-.5-.224-.5-.5v-8c0-.276.224-.5.5-.5s.5.224.5.5v8c0 .276-.224.5-.5.5z" fill="#212a41"/><path d="m22 35.5c-.276 0-.5-.224-.5-.5v-7c0-.276.224-.5.5-.5s.5.224.5.5v7c0 .276-.224.5-.5.5z" fill="#212a41"/><path d="m54 58.5c-.276 0-.5-.224-.5-.5v-18c0-.276.224-.5.5-.5s.5.224.5.5v18c0 .276-.224.5-.5.5z" fill="#c2c2c2"/><path d="m24 58.5c-.276 0-.5-.224-.5-.5v-18c0-.276.224-.5.5-.5s.5.224.5.5v18c0 .276-.224.5-.5.5z" fill="#fefefe"/><path d="m10 58.5c-.276 0-.5-.224-.5-.5v-18c0-.276.224-.5.5-.5s.5.224.5.5v18c0 .276-.224.5-.5.5z" fill="#e0e0e0"/><path d="m20 58.5c-.276 0-.5-.224-.5-.5v-18c0-.276.224-.5.5-.5s.5.224.5.5v18c0 .276-.224.5-.5.5z" fill="#a4a4a4"/><path d="m21 9v5c0 1.105-.895 2-2 2h-2v-5c0-1.105.895-2 2-2z" fill="#db8e11"/><path d="m19 16.5h-2c-.276 0-.5-.224-.5-.5v-5c0-1.378 1.122-2.5 2.5-2.5h2c.276 0 .5.224.5.5v5c0 1.378-1.122 2.5-2.5 2.5zm-1.5-1h1.5c.827 0 1.5-.673 1.5-1.5v-4.5h-1.5c-.827 0-1.5.673-1.5 1.5z" fill="#212a41"/><path d="m28 8v3c0 1.105-.895 2-2 2h-7v-3c0-1.105.895-2 2-2z" fill="#f9ac2f"/><path d="m26 13.5h-7c-.276 0-.5-.224-.5-.5v-3c0-1.378 1.122-2.5 2.5-2.5h7c.276 0 .5.224.5.5v3c0 1.378-1.122 2.5-2.5 2.5zm-6.5-1h6.5c.827 0 1.5-.673 1.5-1.5v-2.5h-6.5c-.827 0-1.5.673-1.5 1.5z" fill="#212a41"/><path d="m52 4h-16c-2.209 0-4 1.791-4 4v9c0 2.209 1.791 4 4 4h2v5h4v-5h10c2.209 0 4-1.791 4-4v-9c0-2.209-1.791-4-4-4z" fill="#99a2b9"/><path d="m42 26.5h-4c-.276 0-.5-.224-.5-.5v-4.5h-1.5c-2.481 0-4.5-2.019-4.5-4.5v-9c0-2.481 2.019-4.5 4.5-4.5h16c2.481 0 4.5 2.019 4.5 4.5v9c0 2.481-2.019 4.5-4.5 4.5h-9.5v4.5c0 .276-.224.5-.5.5zm-3.5-1h3v-4.5c0-.276.224-.5.5-.5h10c1.93 0 3.5-1.57 3.5-3.5v-9c0-1.93-1.57-3.5-3.5-3.5h-16c-1.93 0-3.5 1.57-3.5 3.5v9c0 1.93 1.57 3.5 3.5 3.5h2c.276 0 .5.224.5.5z" fill="#212a41"/><path d="m56 4h-16c-2.209 0-4 1.791-4 4v9c0 2.209 1.791 4 4 4h2v5l6-5h8c2.209 0 4-1.791 4-4v-9c0-2.209-1.791-4-4-4z" fill="#b7c0d7"/><path d="m42 26.5c-.072 0-.145-.016-.212-.047-.176-.082-.288-.259-.288-.453v-4.5h-1.5c-2.481 0-4.5-2.019-4.5-4.5v-9c0-2.481 2.019-4.5 4.5-4.5h16c2.481 0 4.5 2.019 4.5 4.5v9c0 2.481-2.019 4.5-4.5 4.5h-7.819l-5.861 4.884c-.091.076-.205.116-.32.116zm-2-22c-1.93 0-3.5 1.57-3.5 3.5v9c0 1.93 1.57 3.5 3.5 3.5h2c.276 0 .5.224.5.5v3.933l5.18-4.317c.09-.075.203-.116.32-.116h8c1.93 0 3.5-1.57 3.5-3.5v-9c0-1.93-1.57-3.5-3.5-3.5z" fill="#212a41"/><path d="m38 17.5c-.276 0-.5-.224-.5-.5v-9c0-.276.224-.5.5-.5s.5.224.5.5v9c0 .276-.224.5-.5.5z" fill="#d5def5"/><path d="m58 17.5c-.276 0-.5-.224-.5-.5v-9c0-.276.224-.5.5-.5s.5.224.5.5v9c0 .276-.224.5-.5.5z" fill="#99a2b9"/><path d="m40.5 45h-7c-.552 0-1 .448-1 1v3c0 .552.448 1 1 1h7l5 2v-9z" fill="#e0e0e0"/><path d="m45.5 52.5c-.063 0-.126-.012-.186-.036l-4.91-1.964h-6.904c-.827 0-1.5-.673-1.5-1.5v-3c0-.827.673-1.5 1.5-1.5h6.904l4.911-1.964c.153-.062.328-.043.466.05.136.093.219.248.219.414v9c0 .166-.083.321-.22.414-.084.057-.181.086-.28.086zm-12-7c-.276 0-.5.224-.5.5v3c0 .276.224.5.5.5h7c.063 0 .126.012.186.036l4.314 1.726v-7.523l-4.314 1.726c-.06.023-.123.035-.186.035z" fill="#212a41"/><path d="m36.5 55h-1c-.552 0-1-.448-1-1v-4h3v4c0 .552-.448 1-1 1z" fill="#0079a8"/><g fill="#212a41"><path d="m36.5 55.5h-1c-.827 0-1.5-.673-1.5-1.5v-4c0-.276.224-.5.5-.5h3c.276 0 .5.224.5.5v4c0 .827-.673 1.5-1.5 1.5zm-1.5-5v3.5c0 .276.224.5.5.5h1c.276 0 .5-.224.5-.5v-3.5z"/><path d="m40.5 50.5c-.276 0-.5-.224-.5-.5v-5c0-.276.224-.5.5-.5s.5.224.5.5v5c0 .276-.224.5-.5.5z"/><path d="m55.177 9.5h-14c-.276 0-.5-.224-.5-.5s.224-.5.5-.5h14c.276 0 .5.224.5.5s-.224.5-.5.5z"/><path d="m55.177 13.5h-14c-.276 0-.5-.224-.5-.5s.224-.5.5-.5h14c.276 0 .5.224.5.5s-.224.5-.5.5z"/><path d="m55.177 17.5h-14c-.276 0-.5-.224-.5-.5s.224-.5.5-.5h14c.276 0 .5.224.5.5s-.224.5-.5.5z"/></g><path d="m23 35h-2v-4h2c.552 0 1 .448 1 1v2c0 .552-.448 1-1 1z" fill="#e0c8a4"/><path d="m23 35.5h-2c-.276 0-.5-.224-.5-.5v-4c0-.276.224-.5.5-.5h2c.827 0 1.5.673 1.5 1.5v2c0 .827-.673 1.5-1.5 1.5zm-1.5-1h1.5c.276 0 .5-.224.5-.5v-2c0-.276-.224-.5-.5-.5h-1.5z" fill="#212a41"/><path d="m39 35h-2v-4h2c.552 0 1 .448 1 1v2c0 .552-.448 1-1 1z" fill="#e0c8a4"/><path d="m39 35.5h-2c-.276 0-.5-.224-.5-.5v-4c0-.276.224-.5.5-.5h2c.827 0 1.5.673 1.5 1.5v2c0 .827-.673 1.5-1.5 1.5zm-1.5-1h1.5c.276 0 .5-.224.5-.5v-2c0-.276-.224-.5-.5-.5h-1.5z" fill="#212a41"/><path d="m22 28.5c-.106 0-.213-.034-.303-.102-.183-.139-.247-.384-.157-.595l3-7c.072-.169.231-.284.414-.301.189-.018.36.068.462.221l2 3c.144.216.099.506-.104.668l-5 4c-.091.072-.201.109-.312.109zm3.096-6.455-1.851 4.318 3.084-2.467z" fill="#212a41"/><path d="m22 28.5c-.111 0-.221-.037-.312-.109l-5-4c-.202-.162-.248-.452-.104-.668l2-3c.102-.152.278-.238.462-.221.183.017.341.132.414.301l3 7c.09.21.026.456-.157.595-.09.068-.197.102-.303.102zm-4.33-4.604 3.084 2.467-1.851-4.318z" fill="#212a41"/></svg>