<svg height="451pt" viewBox="-2 0 451 451.76" width="451pt" xmlns="http://www.w3.org/2000/svg"><path d="m3.378906 73.878906v352.5625c0 12.320313 10 22.320313 22.320313 22.320313h288.820312c12.320313 0 22.320313-10 22.320313-22.320313v-352.5625zm0 0" fill="#fce8cb"/><path d="m336.839844 70.878906h-333.460938c-1.65625 0-3 1.34375-3 3v74.035156c0 1.65625 1.34375 3 3 3s3-1.34375 3-3v-71.035156h327.460938v349.5625c0 10.652344-8.667969 19.320313-19.320313 19.320313h-288.820312c-10.652344 0-19.320313-8.667969-19.320313-19.320313v-249.261718c0-1.65625-1.34375-3-3-3s-3 1.34375-3 3v249.261718c0 13.957032 11.359375 25.320313 25.320313 25.320313h288.820312c13.957031 0 25.320313-11.359375 25.320313-25.320313v-352.5625c0-1.65625-1.347656-3-3-3zm0 0" fill="#3a312a"/><path d="m314.511719 3h-288.804688c-12.332031 0-22.328125 9.996094-22.328125 22.324219v48.554687h333.457032v-48.554687c0-12.328125-9.996094-22.324219-22.324219-22.324219zm0 0" fill="#f16c7a"/><g fill="#3a312a"><path d="m314.511719 0h-101.3125c-1.65625 0-3 1.34375-3 3s1.34375 3 3 3h101.3125c10.652343 0 19.324219 8.667969 19.324219 19.324219v45.554687h-327.457032v-45.554687c0-10.65625 8.671875-19.324219 19.328125-19.324219h159.144531c1.65625 0 3-1.34375 3-3s-1.34375-3-3-3h-159.144531c-13.964843 0-25.328125 11.359375-25.328125 25.324219v48.554687c0 1.660156 1.34375 3 3 3h333.457032c1.65625 0 3-1.339844 3-3v-48.554687c0-13.964844-11.363282-25.324219-25.324219-25.324219zm0 0"/><path d="m296.078125 225.214844h-256.769531c-1.65625 0-3 1.339844-3 3 0 1.65625 1.34375 3 3 3h256.773437c1.65625 0 3-1.34375 3-3 0-1.660156-1.347656-3-3.003906-3zm0 0"/><path d="m296.078125 276.214844h-256.769531c-1.65625 0-3 1.339844-3 3 0 1.65625 1.34375 3 3 3h256.773437c1.65625 0 3-1.34375 3-3 0-1.660156-1.347656-3-3.003906-3zm0 0"/><path d="m296.078125 327.214844h-256.769531c-1.65625 0-3 1.339844-3 3 0 1.65625 1.34375 3 3 3h256.773437c1.65625 0 3-1.34375 3-3 0-1.660156-1.347656-3-3.003906-3zm0 0"/></g><path d="m412.128906 22.355469c-1.949218 23.125-26.050781 26.777343-26.050781 26.777343 20.695313.972657 25.851563 28.117188 25.851563 28.117188.441406-19.355469 26.640624-28.402344 26.640624-28.402344-19.625-1.175781-26.441406-26.492187-26.441406-26.492187zm0 0" fill="#d7e057"/><path d="m438.75 45.851562c-17.207031-1.03125-23.664062-24.046874-23.726562-24.28125-.378907-1.40625-1.707032-2.3125-3.167969-2.203124-1.449219.128906-2.59375 1.28125-2.71875 2.734374-1.714844 20.429688-22.625 23.925782-23.507813 24.0625-1.523437.230469-2.625 1.582032-2.542968 3.125.078124 1.539063 1.3125 2.765626 2.855468 2.839844 18.054688.851563 22.996094 25.4375 23.042969 25.683594.277344 1.421875 1.519531 2.433594 2.945313 2.433594.085937 0 .167968 0 .253906-.007813 1.527344-.128906 2.710937-1.386719 2.75-2.917969.382812-17.019531 24.378906-25.554687 24.621094-25.636718 1.351562-.472656 2.183593-1.828125 1.988281-3.246094-.195313-1.417969-1.363281-2.5-2.792969-2.585938zm-27.128906 20.691407c-2.714844-6.257813-7.417969-13.8125-15.175782-17.75 5.863282-2.8125 12.816407-7.828125 16.402344-16.546875 3.101563 6.144531 8.398438 13.761718 16.667969 17.445312-6.011719 3.277344-13.84375 8.8125-17.894531 16.851563zm0 0" fill="#3a312a"/><path d="m368.730469 56.3125c-1.375 16.359375-18.425781 18.945312-18.425781 18.945312 14.636718.6875 18.285156 19.886719 18.285156 19.886719.3125-13.691406 18.84375-20.09375 18.84375-20.09375-13.882813-.828125-18.703125-18.738281-18.703125-18.738281zm0 0" fill="#d7e057"/><path d="m387.613281 72.058594c-11.535156-.691406-15.941406-16.371094-15.984375-16.53125-.382812-1.402344-1.726562-2.320313-3.164062-2.203125-1.453125.128906-2.601563 1.285156-2.722656 2.734375-1.15625 13.742187-15.292969 16.136718-15.882813 16.230468-1.527344.230469-2.628906 1.578126-2.546875 3.121094.078125 1.539063 1.3125 2.769532 2.855469 2.84375 12.070312.566406 15.449219 17.285156 15.476562 17.449219.273438 1.425781 1.519531 2.441406 2.949219 2.441406.082031 0 .164062-.003906.25-.011719 1.527344-.125 2.714844-1.386718 2.75-2.921874.261719-11.417969 16.664062-17.265626 16.824219-17.324219 1.351562-.464844 2.1875-1.824219 1.992187-3.242188-.199218-1.417969-1.367187-2.5-2.796875-2.585937zm-19.167969 13.589844c-1.847656-3.769532-4.679687-7.894532-8.894531-10.558594 3.710938-2.082032 7.394531-5.261719 9.742188-9.835938 2.113281 3.75 5.308593 7.910156 9.882812 10.449219-3.699219 2.203125-7.980469 5.480469-10.730469 9.945313zm0 0" fill="#3a312a"/><path d="m368.730469 3c-1.375 16.359375-18.425781 18.941406-18.425781 18.941406 14.636718.6875 18.285156 19.886719 18.285156 19.886719.3125-13.691406 18.84375-20.089844 18.84375-20.089844-13.882813-.832031-18.703125-18.738281-18.703125-18.738281zm0 0" fill="#d7e057"/><path d="m387.613281 18.742188c-11.488281-.6875-15.910156-16.25-15.984375-16.523438-.378906-1.40625-1.746094-2.328125-3.164062-2.2070312-1.453125.1289062-2.601563 1.2851562-2.722656 2.7343752-1.15625 13.742187-15.292969 16.132812-15.882813 16.226562-1.527344.230469-2.628906 1.582032-2.546875 3.125.078125 1.539063 1.3125 2.765625 2.855469 2.839844 12.070312.570312 15.449219 17.289062 15.476562 17.453125.273438 1.421875 1.519531 2.4375 2.949219 2.4375.082031 0 .164062 0 .25-.007813 1.527344-.125 2.714844-1.386718 2.75-2.921874.261719-11.417969 16.664062-17.269532 16.824219-17.324219 1.351562-.46875 2.1875-1.828125 1.992187-3.246094-.199218-1.417969-1.367187-2.5-2.796875-2.585937zm-19.167969 13.59375c-1.847656-3.773438-4.679687-7.894532-8.894531-10.5625 3.710938-2.082032 7.394531-5.257813 9.742188-9.832032 2.113281 3.75 5.308593 7.910156 9.882812 10.449219-3.699219 2.199219-7.980469 5.476563-10.730469 9.945313zm0 0" fill="#3a312a"/><path d="m187.308594 378.214844h-148c-1.65625 0-3 1.339844-3 3 0 1.65625 1.34375 3 3 3h148c1.65625 0 3-1.34375 3-3 0-1.660156-1.34375-3-3-3zm0 0" fill="#3a312a"/><path d="m260.492188 401.917969 140.734374-250.835938 33.164063 18.605469-140.734375 250.835938zm0 0" fill="#8ac6dd"/><path d="m435.871094 167.078125-33.164063-18.609375c-.691406-.390625-1.511719-.488281-2.28125-.269531-.765625.210937-1.414062.726562-1.804687 1.417969l-140.738282 250.839843c-.8125 1.441407-.292968 3.273438 1.148438 4.082031l33.164062 18.609376c.453126.253906.957032.382812 1.464844.382812.273438 0 .546875-.039062.8125-.109375.765625-.214844 1.414063-.726563 1.804688-1.421875l140.742187-250.839844c.808594-1.445312.296875-3.273437-1.148437-4.082031zm-143.355469 249.371094-27.933594-15.671875 137.804688-245.605469 27.929687 15.671875zm0 0" fill="#3a312a"/><path d="m296.171875 338.324219 69.375-123.648438 33.164063 18.605469-69.375 123.648438zm0 0" fill="#d7e057"/><path d="m401.613281 232.472656c-.21875-.765625-.726562-1.414062-1.421875-1.800781l-33.164062-18.609375c-1.445313-.808594-3.277344-.296875-4.085938 1.148438l-69.378906 123.648437c-.386719.695313-.488281 1.515625-.273438 2.28125.21875.765625.726563 1.414063 1.421876 1.804687l33.164062 18.605469c.464844.261719.96875.386719 1.46875.386719 1.046875 0 2.066406-.554688 2.617188-1.535156l69.378906-123.648438c.390625-.691406.484375-1.511718.273437-2.28125zm-73.417969 120.382813-27.933593-15.671875 66.445312-118.417969 27.933594 15.671875zm0 0" fill="#3a312a"/><path d="m433.824219 131.867188c-9.15625-5.140626-20.746094-1.882813-25.882813 7.277343l-6.703125 11.941407 33.164063 18.605468 6.703125-11.941406c5.136719-9.15625 1.878906-20.746094-7.28125-25.882812zm0 0" fill="#f16c7a"/><path d="m445.714844 142.488281c-1.59375-5.660156-5.292969-10.359375-10.421875-13.238281-5.128907-2.878906-11.070313-3.585938-16.730469-1.992188-5.660156 1.589844-10.363281 5.289063-13.242188 10.417969l-6.699218 11.941407c-.808594 1.441406-.292969 3.273437 1.148437 4.082031l33.164063 18.609375c.464844.257812.96875.382812 1.464844.382812 1.050781 0 2.070312-.550781 2.621093-1.535156l6.703125-11.941406c2.875-5.121094 3.582032-11.066406 1.992188-16.726563zm-7.226563 13.796875-5.234375 9.324219-27.933594-15.671875 5.234376-9.324219c2.089843-3.730469 5.511718-6.421875 9.628906-7.578125 4.121094-1.160156 8.441406-.644531 12.171875 1.449219s6.421875 5.511719 7.582031 9.632813c1.160156 4.113281.640625 8.4375-1.449219 12.167968zm0 0" fill="#3a312a"/><path d="m260.496094 401.921875-1.546875 32.445313c-.195313 4.128906 4.40625 6.710937 7.828125 4.394531l26.882812-18.230469zm0 0" fill="#87796f"/><path d="m295.132812 417.914062-33.164062-18.605468c-.910156-.511719-2.015625-.515625-2.921875-.007813-.910156.503907-1.496094 1.441407-1.542969 2.480469l-1.546875 32.445312c-.148437 3.054688 1.417969 5.878907 4.082031 7.375 1.230469.691407 2.582032 1.035157 3.929688 1.035157 1.570312 0 3.132812-.464844 4.496094-1.390625l26.882812-18.226563c.863282-.585937 1.359375-1.574219 1.3125-2.613281-.042968-1.039062-.621094-1.980469-1.527344-2.492188zm-30.039062 18.363282c-.933594.632812-1.792969.273437-2.121094.089844-.328125-.183594-1.082031-.730469-1.027344-1.855469l1.316407-27.597657 24.699219 13.859376zm0 0" fill="#3a312a"/><path d="m435.871094 167.078125c-1.445313-.8125-3.273438-.300781-4.085938 1.148437-.808594 1.445313-.292968 3.273438 1.148438 4.082032 8.851562 4.96875 12.011718 16.207031 7.042968 25.054687l-58.996093 105.148438c-.808594 1.445312-.292969 3.273437 1.148437 4.085937.464844.257813.96875.382813 1.464844.382813 1.046875 0 2.066406-.550781 2.621094-1.535157l58.996094-105.148437c6.585937-11.730469 2.394531-26.636719-9.339844-33.21875zm0 0" fill="#3a312a"/><path d="m303.839844 76.878906v188.199219l-5.582032 9.960937-.839843 1.519532c.980469.460937 1.660156 1.480468 1.660156 2.660156 0 1.660156-1.339844 3-3 3h-1.839844l-25.261719 45h27.101563c.917969 0 1.738281.421875 2.300781 1.082031l29.878906-53.261719 5.582032-9.960937v-188.199219zm-8.222656 256.339844h-30l-2.058594 3.640625-35.679688 63.601563c-.101562.179687-.179687.359374-.242187.558593 0 .019531 0 .039063-.019531.082031-.058594.199219-.078126.398438-.097657.597657 0 .019531-.023437.0625-.023437.082031l-1.539063 32.4375c-.160156 3.0625 1.421875 5.882812 4.082031 7.382812 1.238282.699219 2.578126 1.039063 3.917969 1.039063 1.582031 0 3.140625-.480469 4.5-1.402344l17.742188-12.019531 1.296875-27.4375c0-.019531.023437-.0625.023437-.082031.019531-.199219.039063-.398438.097657-.597657.019531-.042968.019531-.0625.019531-.082031.0625-.199219.140625-.378906.242187-.558593l35.679688-63.601563zm8.222656 75.300781v17.921875c0 10.660156-8.683594 19.320313-19.320313 19.320313h30c10.636719 0 19.320313-8.660157 19.320313-19.320313v-71.382812l-1.882813 3.339844zm0 0" fill="#decaad"/><path d="m170.59375 146.683594c-18.980469 0-34.367188 18.683594-34.367188 34.441406 0 15.753906 15.386719 18.503906 34.367188 18.503906s34.367188-2.75 34.367188-18.503906-15.386719-34.441406-34.367188-34.441406zm0 0" fill="#87796f"/><path d="m197.085938 155.945312c-7.40625-7.90625-16.8125-12.257812-26.492188-12.257812s-19.085938 4.351562-26.488281 12.257812c-6.8125 7.273438-10.878907 16.683594-10.878907 25.179688 0 21.503906 25.238282 21.503906 37.371094 21.503906 12.128906 0 37.367188 0 37.367188-21.503906 0-8.496094-4.066406-17.910156-10.878906-25.179688zm-26.492188 40.683594c-22.570312 0-31.367188-4.34375-31.367188-15.503906 0-17.414062 17.160157-31.4375 31.367188-31.4375s31.371094 14.023438 31.371094 31.4375c0 11.15625-8.796875 15.503906-31.371094 15.503906zm0 0" fill="#3a312a"/><path d="m184.054688 117.402344c0-9.539063-6.027344-17.269532-13.460938-17.269532s-13.460938 7.730469-13.460938 17.269532c0 9.539062 6.027344 17.273437 13.460938 17.273437s13.460938-7.734375 13.460938-17.273437zm0 0" fill="#87796f"/><path d="m170.59375 97.128906c-9.074219 0-16.457031 9.09375-16.457031 20.273438 0 11.183594 7.382812 20.273437 16.457031 20.273437 9.078125 0 16.460938-9.09375 16.460938-20.273437 0-11.175782-7.382813-20.273438-16.460938-20.273438zm0 34.546875c-5.769531 0-10.457031-6.402343-10.457031-14.273437 0-7.867188 4.691406-14.273438 10.457031-14.273438s10.460938 6.40625 10.460938 14.273438c0 7.871094-4.691407 14.273437-10.460938 14.273437zm0 0" fill="#3a312a"/><path d="m144.1875 124.796875c-4.457031-8.433594-13.394531-12.457031-19.96875-8.984375s-8.289062 13.128906-3.832031 21.5625 13.394531 12.457031 19.96875 8.984375 8.289062-13.125 3.832031-21.5625zm0 0" fill="#87796f"/><path d="m146.839844 123.394531c-5.222656-9.882812-16.003906-14.476562-24.023438-10.234375-8.027344 4.238282-10.304687 15.726563-5.085937 25.613282 3.902343 7.382812 10.90625 11.816406 17.546875 11.816406 2.246094 0 4.449218-.507813 6.480468-1.578125 8.023438-4.238281 10.304688-15.730469 5.082032-25.617188zm-7.882813 20.3125c-5.101562 2.699219-12.242187-.777343-15.917969-7.734375-3.675781-6.957031-2.519531-14.8125 2.582032-17.507812 1.171875-.617188 2.453125-.914063 3.773437-.914063 4.425781 0 9.308594 3.292969 12.140625 8.648438 3.675782 6.957031 2.519532 14.8125-2.578125 17.507812zm0 0" fill="#3a312a"/><path d="m116.484375 150.46875c-7.59375-5.773438-17.394531-5.65625-21.894531.265625-4.496094 5.917969-1.984375 15.394531 5.609375 21.164063 7.597656 5.773437 17.398437 5.65625 21.898437-.265626 4.496094-5.914062 1.984375-15.394531-5.613281-21.164062zm0 0" fill="#87796f"/><path d="m126.726562 160.226562c-1.230468-4.636718-4.21875-8.953124-8.425781-12.148437-8.90625-6.765625-20.609375-6.382813-26.097656.839844-2.75 3.617187-3.542969 8.3125-2.242187 13.222656 1.230468 4.640625 4.222656 8.957031 8.425781 12.148437 4.257812 3.234376 9.15625 4.835938 13.710937 4.835938 4.964844 0 9.523438-1.90625 12.386719-5.675781 2.75-3.613281 3.542969-8.308594 2.242187-13.222657zm-7.019531 9.59375c-3.488281 4.589844-11.425781 4.453126-17.691406-.308593-3.144531-2.390625-5.367187-5.550781-6.253906-8.90625-.820313-3.085938-.386719-5.949219 1.214843-8.054688 1.707032-2.242187 4.464844-3.355469 7.578126-3.355469 3.261718 0 6.90625 1.226563 10.117187 3.664063 3.144531 2.386719 5.367187 5.550781 6.253906 8.90625.816407 3.085937.386719 5.945313-1.21875 8.054687zm0 0" fill="#3a312a"/><path d="m217.183594 115.8125c-6.574219-3.46875-15.515625.550781-19.972656 8.984375-4.453126 8.4375-2.738282 18.089844 3.832031 21.5625 6.574219 3.46875 15.515625-.550781 19.972656-8.984375 4.453125-8.4375 2.742187-18.089844-3.832031-21.5625zm0 0" fill="#87796f"/><path d="m226.1875 124.207031c-.886719-5-3.589844-8.925781-7.601562-11.046875-4.019532-2.121094-8.78125-2.140625-13.414063-.054687-4.375 1.96875-8.144531 5.625-10.613281 10.292969-2.464844 4.664062-3.359375 9.839843-2.519532 14.566406.886719 5.003906 3.589844 8.925781 7.605469 11.046875 2.027344 1.070312 4.238281 1.605469 6.535157 1.605469 2.25 0 4.578124-.515626 6.875-1.550782 4.375-1.96875 8.144531-5.625 10.609374-10.289062 2.46875-4.667969 3.363282-9.84375 2.523438-14.570313zm-7.824219 11.765625c-1.84375 3.492188-4.605469 6.199219-7.769531 7.625-2.90625 1.304688-5.800781 1.351563-8.144531.109375-2.34375-1.238281-3.941407-3.648437-4.5-6.792969-.609375-3.417968.070312-7.222656 1.917969-10.710937 1.84375-3.492187 4.601562-6.199219 7.769531-7.625 1.496093-.675781 2.988281-1.011719 4.40625-1.011719 1.335937 0 2.601562.300782 3.738281.902344 2.34375 1.238281 3.941406 3.648438 4.5 6.792969.605469 3.414062-.074219 7.21875-1.917969 10.710937zm0 0" fill="#3a312a"/><path d="m246.125 150.734375c-4.496094-5.917969-14.300781-6.039063-21.894531-.265625-7.597657 5.769531-10.105469 15.246094-5.609375 21.164062 4.496094 5.917969 14.300781 6.039063 21.894531.265626 7.597656-5.769532 10.105469-15.246094 5.609375-21.164063zm0 0" fill="#87796f"/><path d="m248.515625 148.921875c-5.492187-7.222656-17.203125-7.605469-26.101563-.839844-4.203124 3.195313-7.195312 7.507813-8.425781 12.148438-1.300781 4.910156-.507812 9.609375 2.242188 13.222656 2.867187 3.769531 7.421875 5.671875 12.390625 5.671875 4.550781 0 9.453125-1.601562 13.707031-4.835938 4.203125-3.191406 7.195313-7.507812 8.425781-12.148437 1.304688-4.910156.507813-9.605469-2.238281-13.21875zm-3.558594 11.683594c-.890625 3.355469-3.109375 6.515625-6.253906 8.90625-6.265625 4.761719-14.203125 4.902343-17.695313.308593-1.605468-2.109374-2.039062-4.96875-1.21875-8.054687.890626-3.355469 3.109376-6.519531 6.253907-8.90625 3.210937-2.4375 6.855469-3.664063 10.117187-3.664063 3.113282 0 5.875 1.113282 7.578125 3.355469 1.601563 2.109375 2.035157 4.96875 1.21875 8.054688zm0 0" fill="#3a312a"/><path d="m314.519531 6h-30c10.636719 0 19.320313 8.660156 19.320313 19.320312v45.558594h30v-45.558594c0-10.660156-8.683594-19.320312-19.320313-19.320312zm0 0" fill="#d34e5c"/></svg>