<?xml version="1.0" encoding="iso-8859-1"?>
<!-- Generator: Adobe Illustrator 19.0.0, SVG Export Plug-In . SVG Version: 6.00 Build 0)  -->
<svg version="1.1" id="Capa_1" xmlns="http://www.w3.org/2000/svg" xmlns:xlink="http://www.w3.org/1999/xlink" x="0px" y="0px"
	 viewBox="0 0 512 512" style="enable-background:new 0 0 512 512;" xml:space="preserve">
<path style="fill:#DCF9F7;" d="M512,56.472v410.156c0,5.159-4.182,9.341-9.341,9.341H9.341c-5.159,0-9.341-4.182-9.341-9.341V56.46
	c0-11.286,9.149-20.434,20.434-20.434h471.132C502.845,36.027,512,45.181,512,56.472z"/>
<g>
	<polygon style="fill:#B0D1CF;" points="145.061,253.477 129.548,188.648 98.522,188.648 83.009,253.477 98.522,290.382 
		98.522,475.97 129.43,475.97 129.43,290.382 129.548,290.382 	"/>
	<path style="fill:#B0D1CF;" d="M419.418,325.299c0,43.7-26.908,81.117-65.066,96.59v54.085H276.12v-54.085
		c-38.158-15.473-65.077-52.889-65.077-96.59c0-37.828,20.161-70.949,50.324-89.203c4.811-2.915,10.961,0.494,10.961,6.109v68.116
		h85.804v-68.116c0-5.615,6.15-9.024,10.961-6.109C399.257,254.35,419.418,287.471,419.418,325.299z"/>
	<path style="fill:#B0D1CF;" d="M512,56.472v73.073H0V56.472c0-11.291,9.154-20.446,20.434-20.446h471.132
		C502.845,36.027,512,45.181,512,56.472z"/>
</g>
<path style="fill:#5089DD;" d="M511.997,113.202H0.003V56.466c0-11.287,9.15-20.437,20.437-20.437h471.12
	c11.287,0,20.437,9.15,20.437,20.437V113.202z"/>
<path style="fill:#DCF9F7;" d="M344.279,83.768H68.673c-4.268,0-7.726-3.459-7.726-7.726s3.459-7.726,7.726-7.726h275.606
	c4.268,0,7.726,3.459,7.726,7.726S348.546,83.768,344.279,83.768z"/>
<path style="fill:#14C4BB;" d="M381.644,83.012c-4.268,0-7.726-3.459-7.726-7.726v-1.342c0-4.267,3.459-7.726,7.726-7.726
	s7.726,3.459,7.726,7.726v1.342C389.37,79.553,385.911,83.012,381.644,83.012z"/>
<path style="fill:#F96982;" d="M412.485,83.012c-4.268,0-7.726-3.459-7.726-7.726v-1.342c0-4.267,3.459-7.726,7.726-7.726
	c4.268,0,7.726,3.459,7.726,7.726v1.342C420.211,79.553,416.753,83.012,412.485,83.012z"/>
<path style="fill:#F9B767;" d="M443.327,83.012c-4.268,0-7.726-3.459-7.726-7.726v-1.342c0-4.267,3.459-7.726,7.726-7.726
	s7.726,3.459,7.726,7.726v1.342C451.053,79.553,447.595,83.012,443.327,83.012z"/>
<g>
	<path style="fill:#14C4BB;" d="M205.242,202.936h-5.363v-5.363c0-4.267-3.459-7.726-7.726-7.726c-4.268,0-7.726,3.459-7.726,7.726
		v5.363h-5.363c-4.268,0-7.726,3.459-7.726,7.726s3.459,7.726,7.726,7.726h5.363v5.363c0,4.267,3.459,7.726,7.726,7.726
		c4.268,0,7.726-3.459,7.726-7.726v-5.363h5.363c4.268,0,7.726-3.459,7.726-7.726C212.969,206.395,209.51,202.936,205.242,202.936z"
		/>
	<path style="fill:#14C4BB;" d="M430.44,203.618h-5.362v-5.363c0-4.267-3.459-7.726-7.726-7.726s-7.726,3.459-7.726,7.726v5.363
		h-5.363c-4.268,0-7.726,3.459-7.726,7.726s3.459,7.726,7.726,7.726h5.363v5.363c0,4.267,3.459,7.726,7.726,7.726
		s7.726-3.459,7.726-7.726v-5.363h5.362c4.268,0,7.726-3.459,7.726-7.726S434.707,203.618,430.44,203.618z"/>
</g>
<path style="fill:#88A5A0;" d="M322.962,391.848v84.125h-15.453v-84.125c0-4.265,3.461-7.726,7.726-7.726
	S322.962,387.584,322.962,391.848z"/>
<g>
</g>
<g>
</g>
<g>
</g>
<g>
</g>
<g>
</g>
<g>
</g>
<g>
</g>
<g>
</g>
<g>
</g>
<g>
</g>
<g>
</g>
<g>
</g>
<g>
</g>
<g>
</g>
<g>
</g>
</svg>
