<svg height="480pt" viewBox="-48 0 480 480.10511" width="480pt" xmlns="http://www.w3.org/2000/svg"><path d="m217.117188 100.609375c-.960938-.003906-1.910157-.175781-2.808594-.511719-14.230469-5.34375-29.914063-5.34375-44.144532 0-4.105468 1.433594-8.609374-.675781-10.132812-4.753906-1.519531-4.074219.492188-8.621094 4.535156-10.230469 17.855469-6.695312 37.535156-6.695312 55.390625 0 3.628907 1.351563 5.769531 5.113281 5.078125 8.925781-.695312 3.8125-4.019531 6.578126-7.894531 6.570313zm0 0" fill="#ffcc5c"/><path d="m240.070312 67.800781c-1.277343 0-2.535156-.308593-3.664062-.894531-27.699219-14.34375-60.640625-14.34375-88.335938 0-2.550781 1.433594-5.679687 1.359375-8.160156-.1875-2.480468-1.546875-3.917968-4.324219-3.75-7.246094.167969-2.917968 1.914063-5.515625 4.558594-6.769531 32.304688-16.734375 70.730469-16.734375 103.039062 0 3.265626 1.703125 4.949219 5.417969 4.078126 8.996094-.875 3.578125-4.082032 6.097656-7.765626 6.101562zm0 0" fill="#f7931e"/><path d="m262.546875 35.730469c-1.460937-.003907-2.894531-.402344-4.140625-1.160157-40.636719-24.769531-91.703125-24.769531-132.335938 0-3.757812 2.097657-8.503906.847657-10.742187-2.828124-2.234375-3.679688-1.160156-8.46875 2.4375-10.835938 45.734375-27.875 103.207031-27.875 148.941406 0 3.070313 1.859375 4.523438 5.539062 3.554688 8.996094-.96875 3.460937-4.121094 5.847656-7.714844 5.84375zm0 0" fill="#f15a24"/><path d="m384.238281 241.226562c-.683593 38.046876-30.859375 68.996094-68.882812 70.636719-1.59375.171875-3.195313.25-4.796875.242188h-258.480469c-27.320313 1.203125-50.507813-19.835938-51.957031-47.144531-1.449219-27.308594 19.382812-50.683594 46.675781-52.375 10.3125-35.347657 42.941406-59.46875 79.761719-58.960938 5.613281 0 11.214844.5625 16.71875 1.679688 18.554687-22.414063 46.179687-35.332032 75.28125-35.199219 35.644531-.347657 68.535156 19.132812 85.359375 50.558593 2.160156-.160156 4.398437-.238281 6.640625-.238281 39.871094-.738281 72.824218 30.925781 73.679687 70.800781zm0 0" fill="#e6e6e6"/><g fill="#3498db"><path d="m173.917969 429.785156-48 48c-3.15625 3.09375-8.207031 3.09375-11.359375 0l-48-48c-2.273438-2.300781-2.933594-5.742187-1.683594-8.71875 1.207031-3.007812 4.125-4.972656 7.363281-4.960937h16v-72c0-4.417969 3.582031-8 8-8h48c4.417969 0 8 3.582031 8 8v72h16c3.238281-.011719 6.15625 1.953125 7.359375 4.960937 1.25 2.976563.589844 6.417969-1.679687 8.71875zm0 0"/><path d="m319.597656 395.144531c-1.203125 3.007813-4.121094 4.972657-7.359375 4.960938h-16v72c0 4.417969-3.582031 8-8 8h-48c-4.417969 0-8-3.582031-8-8v-72h-16c-3.238281.011719-6.15625-1.953125-7.363281-4.960938-1.25-2.980469-.589844-6.417969 1.683594-8.71875l48-48c3.140625-3.121093 8.214844-3.121093 11.359375 0l48 48c2.269531 2.300781 2.929687 5.738281 1.679687 8.71875zm0 0"/></g></svg>