<?xml version="1.0" encoding="iso-8859-1"?>
<!-- Generator: Adobe Illustrator 19.0.0, SVG Export Plug-In . SVG Version: 6.00 Build 0)  -->
<svg version="1.1" id="Capa_1" xmlns="http://www.w3.org/2000/svg" xmlns:xlink="http://www.w3.org/1999/xlink" x="0px" y="0px"
	 viewBox="0 0 480.222 480.222" style="enable-background:new 0 0 480.222 480.222;" xml:space="preserve">
<linearGradient id="SVGID_1_" gradientUnits="userSpaceOnUse" x1="-26.6665" y1="557.5091" x2="-26.6665" y2="619.4281" gradientTransform="matrix(8 0 0 -8 453.4431 4942.0269)">
	<stop  offset="0" style="stop-color:#006DF0"/>
	<stop  offset="1" style="stop-color:#00E7F0"/>
</linearGradient>
<path style="fill:url(#SVGID_1_);" d="M448.222,80.914v-40.8c-0.026-22.08-17.92-39.974-40-40h-128c-22.08,0.026-39.974,17.92-40,40
	v40h-34.896C192.102,24.261,136.102-10.297,80.249,2.928C33.692,13.952,0.676,55.336,0.27,103.178
	c-0.325,4.732-0.357,9.48-0.096,14.216l0.048,258.72c0.026,22.08,17.92,39.974,40,40h168v48h-112c-4.418,0-8,3.582-8,8s3.582,8,8,8
	h288c4.418,0,8-3.582,8-8s-3.582-8-8-8h-112v-48h168c22.08-0.026,39.974-17.92,40-40v-256
	C480.198,101.113,466.834,84.742,448.222,80.914z M256.222,40.114c0-13.255,10.745-24,24-24h128c13.255,0,24,10.745,24,24v80
	c0,13.255-10.745,24-24,24c-2.122,0-4.156,0.844-5.656,2.344l-34.344,34.344v-28.688c0-4.418-3.582-8-8-8h-80
	c-13.255,0-24-10.745-24-24V40.114z M280.222,160.114h72v40c-0.067,4.321,3.382,7.877,7.702,7.944c0.001,0,0.001,0,0.002,0
	c0.104,0,0.2,0.056,0.296,0.056s0.328-0.088,0.504-0.096c0.692-0.045,1.375-0.179,2.032-0.4c0.256-0.088,0.504-0.16,0.752-0.272
	c0.893-0.379,1.707-0.921,2.4-1.6l45.808-45.808c20.638-1.833,36.469-19.105,36.504-39.824V97.482
	c9.582,3.403,15.988,12.464,16,22.632v232h-448V159.722c30.748,48.561,95.041,63.002,143.602,32.254
	c30.114-19.067,48.375-52.219,48.398-87.862c0-2.656-0.128-5.328-0.336-8h32.336v24
	C240.249,142.195,258.142,160.088,280.222,160.114L280.222,160.114z M104.222,16.114c48.601-0.007,88.006,39.386,88.013,87.987
	s-39.386,88.006-87.987,88.013c-45.014,0.007-82.776-33.957-87.523-78.72c-0.353-3.08-0.521-6.179-0.504-9.28
	C16.28,55.537,55.645,16.171,104.222,16.114z M256.222,464.114h-32v-48h32V464.114z M440.222,400.114h-400
	c-13.255,0-24-10.745-24-24v-8h448v8C464.222,389.369,453.477,400.114,440.222,400.114z"/>
<g>
	
		<linearGradient id="SVGID_2_" gradientUnits="userSpaceOnUse" x1="-43.6526" y1="557.5091" x2="-43.6526" y2="619.4281" gradientTransform="matrix(8 0 0 -8 453.4431 4942.0269)">
		<stop  offset="0" style="stop-color:#006DF0"/>
		<stop  offset="1" style="stop-color:#00E7F0"/>
	</linearGradient>
	<path style="fill:url(#SVGID_2_);" d="M88.222,128.114c0-4.418-3.582-8-8-8s-8,3.582-8,8c0.055,14.547,9.915,27.227,24,30.864
		v9.136h16v-9.136c17.046-4.338,27.347-21.674,23.009-38.719c-2.877-11.304-11.704-20.131-23.009-23.009V66.338
		c4.934,2.835,7.983,8.085,8,13.776c0,4.418,3.582,8,8,8s8-3.582,8-8c-0.055-14.547-9.915-27.227-24-30.864v-9.136h-16v9.136
		C79.177,53.589,68.875,70.924,73.214,87.97c2.877,11.304,11.704,20.131,23.009,23.009v30.912
		C91.288,139.055,88.24,133.805,88.222,128.114z M120.222,128.114c-0.017,5.691-3.066,10.941-8,13.776v-27.552
		C117.156,117.173,120.205,122.423,120.222,128.114z M88.222,80.114c0.017-5.691,3.066-10.941,8-13.776V93.89
		C91.288,91.055,88.24,85.805,88.222,80.114z"/>
	
		<linearGradient id="SVGID_3_" gradientUnits="userSpaceOnUse" x1="-18.6526" y1="557.5091" x2="-18.6526" y2="619.4281" gradientTransform="matrix(8 0 0 -8 453.4431 4942.0269)">
		<stop  offset="0" style="stop-color:#006DF0"/>
		<stop  offset="1" style="stop-color:#00E7F0"/>
	</linearGradient>
	<path style="fill:url(#SVGID_3_);" d="M296.222,88.114h16c4.418,0,8-3.582,8-8s-3.582-8-8-8h-16c-4.418,0-8,3.582-8,8
		S291.804,88.114,296.222,88.114z"/>
	
		<linearGradient id="SVGID_4_" gradientUnits="userSpaceOnUse" x1="-13.6526" y1="557.5091" x2="-13.6526" y2="619.4281" gradientTransform="matrix(8 0 0 -8 453.4431 4942.0269)">
		<stop  offset="0" style="stop-color:#006DF0"/>
		<stop  offset="1" style="stop-color:#00E7F0"/>
	</linearGradient>
	<path style="fill:url(#SVGID_4_);" d="M336.222,88.114h16c4.418,0,8-3.582,8-8s-3.582-8-8-8h-16c-4.418,0-8,3.582-8,8
		S331.804,88.114,336.222,88.114z"/>
	
		<linearGradient id="SVGID_5_" gradientUnits="userSpaceOnUse" x1="-8.6526" y1="557.5091" x2="-8.6526" y2="619.4281" gradientTransform="matrix(8 0 0 -8 453.4431 4942.0269)">
		<stop  offset="0" style="stop-color:#006DF0"/>
		<stop  offset="1" style="stop-color:#00E7F0"/>
	</linearGradient>
	<path style="fill:url(#SVGID_5_);" d="M376.222,88.114h16c4.418,0,8-3.582,8-8s-3.582-8-8-8h-16c-4.418,0-8,3.582-8,8
		S371.804,88.114,376.222,88.114z"/>
	
		<linearGradient id="SVGID_6_" gradientUnits="userSpaceOnUse" x1="-15.6526" y1="557.5091" x2="-15.6526" y2="619.4281" gradientTransform="matrix(8 0 0 -8 453.4431 4942.0269)">
		<stop  offset="0" style="stop-color:#006DF0"/>
		<stop  offset="1" style="stop-color:#00E7F0"/>
	</linearGradient>
	<path style="fill:url(#SVGID_6_);" d="M256.222,280.114h144c4.418,0,8-3.582,8-8s-3.582-8-8-8h-144c-4.418,0-8,3.582-8,8
		S251.804,280.114,256.222,280.114z"/>
	
		<linearGradient id="SVGID_7_" gradientUnits="userSpaceOnUse" x1="-15.6526" y1="557.5091" x2="-15.6526" y2="619.4281" gradientTransform="matrix(8 0 0 -8 453.4431 4942.0269)">
		<stop  offset="0" style="stop-color:#006DF0"/>
		<stop  offset="1" style="stop-color:#00E7F0"/>
	</linearGradient>
	<path style="fill:url(#SVGID_7_);" d="M256.222,312.114h144c4.418,0,8-3.582,8-8s-3.582-8-8-8h-144c-4.418,0-8,3.582-8,8
		S251.804,312.114,256.222,312.114z"/>
	
		<linearGradient id="SVGID_8_" gradientUnits="userSpaceOnUse" x1="-22.6526" y1="557.5091" x2="-22.6526" y2="619.4281" gradientTransform="matrix(8 0 0 -8 453.4431 4942.0269)">
		<stop  offset="0" style="stop-color:#006DF0"/>
		<stop  offset="1" style="stop-color:#00E7F0"/>
	</linearGradient>
	<path style="fill:url(#SVGID_8_);" d="M256.222,248.114h32c4.418,0,8-3.582,8-8s-3.582-8-8-8h-32c-4.418,0-8,3.582-8,8
		S251.804,248.114,256.222,248.114z"/>
	
		<linearGradient id="SVGID_9_" gradientUnits="userSpaceOnUse" x1="-11.6526" y1="557.5091" x2="-11.6526" y2="619.4281" gradientTransform="matrix(8 0 0 -8 453.4431 4942.0269)">
		<stop  offset="0" style="stop-color:#006DF0"/>
		<stop  offset="1" style="stop-color:#00E7F0"/>
	</linearGradient>
	<path style="fill:url(#SVGID_9_);" d="M320.222,248.114h80c4.418,0,8-3.582,8-8s-3.582-8-8-8h-80c-4.418,0-8,3.582-8,8
		S315.804,248.114,320.222,248.114z"/>
	
		<linearGradient id="SVGID_10_" gradientUnits="userSpaceOnUse" x1="-48.6526" y1="557.5091" x2="-48.6526" y2="619.4281" gradientTransform="matrix(8 0 0 -8 453.4431 4942.0269)">
		<stop  offset="0" style="stop-color:#006DF0"/>
		<stop  offset="1" style="stop-color:#00E7F0"/>
	</linearGradient>
	<path style="fill:url(#SVGID_10_);" d="M88.222,320.114h-40v-40c0-4.418-3.582-8-8-8s-8,3.582-8,8v48c0,4.418,3.582,8,8,8h48
		c4.418,0,8-3.582,8-8S92.641,320.114,88.222,320.114z"/>
</g>
<g>
</g>
<g>
</g>
<g>
</g>
<g>
</g>
<g>
</g>
<g>
</g>
<g>
</g>
<g>
</g>
<g>
</g>
<g>
</g>
<g>
</g>
<g>
</g>
<g>
</g>
<g>
</g>
<g>
</g>
</svg>
