<svg height="512pt" viewBox="0 -30 512 512" width="512pt" xmlns="http://www.w3.org/2000/svg"><path d="m34.132812 349.867188c-4.710937 0-8.53125-3.820313-8.53125-8.535157v-25.597656c0-4.714844 3.820313-8.535156 8.53125-8.535156 4.714844 0 8.535157 3.820312 8.535157 8.535156v25.597656c0 4.714844-3.820313 8.535157-8.535157 8.535157zm0 0" fill="#e4c05c"/><path d="m503.464844 452.265625h-494.929688c-4.714844 0-8.535156-3.820313-8.535156-8.53125 0-4.714844 3.820312-8.535156 8.535156-8.535156h494.929688c4.714844 0 8.535156 3.820312 8.535156 8.535156 0 4.710937-3.820312 8.53125-8.535156 8.53125zm0 0" fill="#5e5f62"/><path d="m179.199219 42.667969c0 23.5625-19.101563 42.664062-42.664063 42.664062-23.566406 0-42.667968-19.101562-42.667968-42.664062 0-23.566407 19.101562-42.667969 42.667968-42.667969 23.5625 0 42.664063 19.101562 42.664063 42.667969zm0 0" fill="#fdd7ad"/><path d="m136.535156 290.132812v132.265626c0 11.785156 9.550782 21.335937 21.332032 21.335937s21.332031-9.550781 21.332031-21.335937v-179.199219c0-4.710938-3.820313-8.53125-8.53125-8.53125h-68.269531c-4.710938 0-8.53125 3.820312-8.53125 8.53125v179.199219c0 11.785156 9.550781 21.335937 21.332031 21.335937s21.335937-9.550781 21.335937-21.335937v-98.132813" fill="#2c2f38"/><path d="m51.199219 443.734375h-34.132813c-4.710937 0-8.53125-3.820313-8.53125-8.535156v-85.332031c0-4.714844 3.820313-8.535157 8.53125-8.535157h34.132813c4.714843 0 8.535156 3.820313 8.535156 8.535157v85.332031c0 4.714843-3.820313 8.535156-8.535156 8.535156zm0 0" fill="#cb8252"/><path d="m85.332031 238.933594v8.53125c0 4.714844 3.820313 8.535156 8.535157 8.535156h85.332031c4.714843 0 8.535156-3.820312 8.535156-8.535156v-102.398438h42.664063c9.425781 0 17.066406-7.640625 17.066406-17.066406v-85.332031c-.066406-9.398438-7.667969-17-17.066406-17.066407-9.414063.027344-17.035157 7.652344-17.066407 17.066407v68.265625h-51.199219c-2.679687.019531-5.203124 1.277344-6.824218 3.414062l-16.214844 21.589844c-3.414062 4.605469-1.707031 4.605469-5.121094 0l-16.210937-21.589844c-1.625-2.136718-4.148438-3.394531-6.828125-3.414062h-25.601563c-18.851562 0-34.132812 15.28125-34.132812 34.132812v93.867188c0 9.425781 7.640625 17.066406 17.066406 17.066406s17.066406-7.640625 17.066406-17.066406zm0 0" fill="#4482c3"/><path d="m230.398438 379.734375h42.667968v46.933594c0 9.425781-7.640625 17.066406-17.066406 17.066406h-8.535156c-9.425782 0-17.066406-7.640625-17.066406-17.066406zm0 0" fill="#2c2f38"/><path d="m443.734375 379.734375h42.664063v46.933594c0 9.425781-7.640626 17.066406-17.066407 17.066406h-8.53125c-9.425781 0-17.066406-7.640625-17.066406-17.066406zm0 0" fill="#2c2f38"/><path d="m332.800781 128h51.199219c4.710938 0 8.535156 3.820312 8.535156 8.535156v34.132813h-68.269531v-34.132813c0-4.714844 3.820313-8.535156 8.535156-8.535156zm0 0" fill="#bdc3c7"/><path d="m260.265625 285.867188h-25.597656c-9.398438-.070313-17-7.671876-17.066407-17.066407.027344-9.414062 7.652344-17.039062 17.066407-17.066406h25.597656v4.265625" fill="#f0c419"/><path d="m456.535156 256v-4.265625h25.597656c9.414063.027344 17.039063 7.652344 17.066407 17.066406-.070313 9.394531-7.667969 16.996094-17.066407 17.066407h-25.597656" fill="#f0c419"/><path d="m444.039062 197.34375 25.292969 88.523438h-221.867187l25.292968-88.523438c5.238282-18.320312 21.980469-30.945312 41.03125-30.945312h89.222657c19.050781 0 35.792969 12.625 41.027343 30.945312zm0 0" fill="#b0d3f0"/><path d="m298.667969 226.132812c-3.453125 0-6.5625-2.078124-7.882813-5.265624-1.320312-3.191407-.589844-6.859376 1.847656-9.300782l17.066407-17.066406c3.347656-3.234375 8.671875-3.1875 11.964843.105469 3.289063 3.289062 3.335938 8.613281.101563 11.960937l-17.066406 17.066406c-1.597657 1.601563-3.769531 2.5-6.03125 2.5zm0 0" fill="#e6e7e8"/><path d="m315.734375 260.265625c-3.453125 0-6.5625-2.078125-7.882813-5.265625-1.320312-3.191406-.589843-6.859375 1.847657-9.300781l51.199219-51.199219c3.351562-3.234375 8.671874-3.1875 11.964843.105469 3.289063 3.289062 3.335938 8.613281.101563 11.960937l-51.199219 51.199219c-1.597656 1.601563-3.769531 2.5-6.03125 2.5zm0 0" fill="#e6e7e8"/><path d="m247.464844 281.601562h221.867187c18.851563 0 34.132813 15.28125 34.132813 34.132813v51.199219c0 9.425781-7.640625 17.066406-17.066406 17.066406h-256c-9.425782 0-17.066407-7.640625-17.066407-17.066406v-51.199219c0-18.851563 15.285157-34.132813 34.132813-34.132813zm0 0" fill="#f0c419"/><path d="m298.667969 349.867188h-42.667969c-4.710938 0-8.535156-3.820313-8.535156-8.535157v-15.757812c0-2.476563 1.074218-4.828125 2.941406-6.445313 1.871094-1.621094 4.347656-2.351562 6.796875-2.003906l42.667969 6.09375c4.203125.597656 7.328125 4.199219 7.328125 8.445312v9.667969c0 4.714844-3.820313 8.535157-8.53125 8.535157zm0 0" fill="#ecf0f1"/><path d="m418.132812 349.867188h42.667969c4.710938 0 8.53125-3.820313 8.53125-8.535157v-15.757812c0-2.476563-1.070312-4.828125-2.941406-6.445313-1.867187-1.621094-4.34375-2.351562-6.792969-2.003906l-42.667968 6.09375c-4.207032.597656-7.328126 4.199219-7.328126 8.445312v9.667969c0 4.714844 3.820313 8.535157 8.53125 8.535157zm0 0" fill="#ecf0f1"/><g fill="#fff"><path d="m375.464844 324.265625h-34.132813c-4.710937 0-8.53125-3.820313-8.53125-8.53125 0-4.714844 3.820313-8.535156 8.53125-8.535156h34.132813c4.714844 0 8.535156 3.820312 8.535156 8.535156 0 4.710937-3.820312 8.53125-8.535156 8.53125zm0 0"/><path d="m375.464844 358.398438h-34.132813c-4.710937 0-8.53125-3.820313-8.53125-8.53125 0-4.714844 3.820313-8.535157 8.53125-8.535157h34.132813c4.714844 0 8.535156 3.820313 8.535156 8.535157 0 4.710937-3.820312 8.53125-8.535156 8.53125zm0 0"/></g></svg>