<?xml version="1.0" encoding="iso-8859-1"?>
<!-- Generator: Adobe Illustrator 22.1.0, SVG Export Plug-In . SVG Version: 6.00 Build 0)  -->
<svg xmlns="http://www.w3.org/2000/svg" xmlns:xlink="http://www.w3.org/1999/xlink" version="1.1" id="Layer_1_1_" x="0px" y="0px" viewBox="0 0 64 64" style="enable-background:new 0 0 64 64;" xml:space="preserve" width="512" height="512">
<linearGradient id="SVGID_1_" gradientUnits="userSpaceOnUse" x1="32" y1="62.9482" x2="32" y2="1.0518">
	<stop offset="0" style="stop-color:#9F2FFF"/>
	<stop offset="1" style="stop-color:#0BB1D3"/>
</linearGradient>
<path style="fill:url(#SVGID_1_);" d="M33,25v2.184c1.161,0.414,2,1.514,2,2.816h-2c0-0.552-0.448-1-1-1s-1,0.448-1,1s0.448,1,1,1  c1.654,0,3,1.346,3,3c0,1.302-0.839,2.402-2,2.816V39h-2v-2.184c-1.161-0.414-2-1.514-2-2.816h2c0,0.552,0.448,1,1,1s1-0.448,1-1  s-0.448-1-1-1c-1.654,0-3-1.346-3-3c0-1.302,0.839-2.402,2-2.816V25H33z M32,21c6.065,0,11,4.935,11,11s-4.935,11-11,11  s-11-4.935-11-11S25.935,21,32,21z M32,23c-4.963,0-9,4.037-9,9s4.037,9,9,9s9-4.037,9-9S36.963,23,32,23z M27,3h10  c1.654,0,3,1.346,3,3v5h-4v4.495C43.447,17.301,49,24.006,49,32c0,9.374-7.626,17-17,17s-17-7.626-17-17  c0-7.994,5.553-14.699,13-16.505V11h-4V6C24,4.346,25.346,3,27,3z M32,17c-8.271,0-15,6.729-15,15s6.729,15,15,15s15-6.729,15-15  S40.271,17,32,17z M34,11h-4v4.128C30.657,15.051,31.322,15,32,15s1.343,0.051,2,0.128V11z M37,5H27c-0.552,0-1,0.448-1,1v3h12V6  C38,5.448,37.552,5,37,5z M18.407,11.651l-6.756,6.756l2.017,3.388c-0.785,1.408-1.404,2.903-1.846,4.459L8,27.222v9.557  l3.822,0.968c0.441,1.556,1.061,3.051,1.846,4.459l-2.018,3.387l6.757,6.758l3.388-2.018c1.408,0.785,2.903,1.404,4.459,1.846  L27.222,56h9.557l0.968-3.822c1.556-0.441,3.051-1.061,4.459-1.846l3.388,2.018l6.757-6.758l-2.018-3.387  c0.785-1.408,1.404-2.903,1.846-4.459L56,36.778v-9.557l-3.822-0.968c-0.441-1.556-1.061-3.051-1.846-4.459l2.017-3.388  l-6.756-6.756l-3.388,2.017c-1.222-0.681-2.514-1.24-3.851-1.664l-0.605,1.906c1.382,0.438,2.712,1.036,3.951,1.775l0.513,0.306  l3.065-1.826l4.557,4.557l-1.826,3.065l0.306,0.513c0.932,1.562,1.632,3.253,2.08,5.024l0.146,0.578L54,28.778v6.443l-3.459,0.876  l-0.146,0.578c-0.448,1.771-1.148,3.462-2.08,5.024l-0.306,0.513l1.825,3.064l-4.556,4.557l-3.065-1.825L41.7,48.314  c-1.562,0.932-3.253,1.632-5.024,2.08l-0.578,0.146L35.222,54h-6.443l-0.876-3.459l-0.578-0.146  c-1.771-0.448-3.462-1.148-5.024-2.08l-0.513-0.306l-3.065,1.825l-4.556-4.557l1.825-3.064L15.686,41.7  c-0.932-1.562-1.632-3.253-2.08-5.024l-0.146-0.578L10,35.222v-6.443l3.459-0.876l0.146-0.578c0.448-1.771,1.148-3.462,2.08-5.024  l0.306-0.513l-1.826-3.065l4.557-4.557l3.065,1.826l0.512-0.305c1.257-0.749,2.604-1.353,4.003-1.792l-0.6-1.908  c-1.356,0.427-2.668,0.991-3.907,1.682L18.407,11.651z M1,32h2C3,20.617,9.498,10.507,19.695,5.744l-0.682,4.092l1.973,0.328  l1.141-6.843l-6.811-2.27l-0.633,1.896l3.654,1.218C7.728,9.353,1,20.02,1,32z M3,34H1v2h2V34z M3,38H1v2h2V38z M44.305,58.256  l0.682-4.092l-1.973-0.328l-1.141,6.843l6.811,2.27l0.633-1.896l-3.654-1.218C56.272,54.647,63,43.98,63,32h-2  C61,43.383,54.502,53.493,44.305,58.256z M61,30h2v-2h-2V30z M61,26h2v-2h-2V26z"/>
</svg>
