<svg height="464pt" viewBox="-48 0 464 464" width="464pt" xmlns="http://www.w3.org/2000/svg"><path d="m0 464h368v-464h-288l-80 80zm0 0" fill="#4398d1"/><path d="m80 80v-80l-80 80zm0 0" fill="#87ced9"/><g fill="#368ec9"><path d="m129.855469 135.625-40 48c-2.472657 2.964844-2.472657 7.28125 0 10.246094l40 48 12.289062-10.246094-35.746093-42.871094 35.730468-42.882812zm0 0"/><path d="m152.679688 257.492188 64.027343-143.988282 14.621094 6.5-64.03125 143.992188zm0 0"/><path d="m294.144531 183.625-40-48-12.289062 10.246094 35.730469 42.882812-35.730469 42.871094 12.289062 10.246094 40-48c2.472657-2.964844 2.472657-7.28125 0-10.246094zm0 0"/></g><path d="m121.855469 130.871094-40 48c-2.480469 2.96875-2.480469 7.289062 0 10.257812l40 48 12.289062-10.257812-35.746093-42.871094 35.730468-42.871094zm0 0" fill="#ffc14d"/><path d="m144.675781 252.746094 64.03125-143.992188 14.621094 6.503906-64.03125 143.988282zm0 0" fill="#ffc14d"/><path d="m286.144531 178.871094-40-48-12.289062 10.257812 35.746093 42.871094-35.730468 42.871094 12.289062 10.257812 40-48c2.476563-2.972656 2.46875-7.292968-.015625-10.257812zm0 0" fill="#ffc14d"/><path d="m0 360h368v104h-368zm0 0" fill="#e8594a"/><path d="m139.664062 438.71875h-16.0625l-10-16.0625-9.9375 16.0625h-15.710937l17.046875-26.292969-16-25.105469h15.398438l9.28125 15.886719 8.929687-15.886719h15.789063l-16.238282 26.191407zm0 0" fill="#fff"/><path d="m182.222656 438.71875-10.511718-37.015625h-.320313c.496094 6.304687.746094 11.199219.746094 14.6875v22.328125h-12.304688v-51.398438h18.488281l10.71875 36.496094h.289063l10.503906-36.496094h18.566407v51.398438h-12.796876v-22.535156c0-1.167969 0-2.472656.054688-3.902344.054688-1.433594.191406-4.929688.472656-10.511719h-.3125l-10.402344 36.949219zm0 0" fill="#fff"/><path d="m243.839844 438.71875v-51.398438h13.886718v40.183594h19.792969v11.199219zm0 0" fill="#fff"/><path d="m0 336h368v24h-368zm0 0" fill="#368ec9"/><path d="m0 80h64v16h-64zm0 0" fill="#368ec9"/></svg>