<?xml version="1.0" encoding="iso-8859-1"?>
<!-- Generator: Adobe Illustrator 19.0.0, SVG Export Plug-In . SVG Version: 6.00 Build 0)  -->
<svg version="1.1" id="Capa_1" xmlns="http://www.w3.org/2000/svg" xmlns:xlink="http://www.w3.org/1999/xlink" x="0px" y="0px"
	 viewBox="0 0 496 496" style="enable-background:new 0 0 496 496;" xml:space="preserve">
<linearGradient id="SVGID_1_" gradientUnits="userSpaceOnUse" x1="-39.2285" y1="574.2735" x2="14.0035" y2="627.5005" gradientTransform="matrix(8 0 0 -8 370.9999 5013)">
	<stop  offset="0" style="stop-color:#003F8A"/>
	<stop  offset="0.518" style="stop-color:#00D7DF"/>
	<stop  offset="1" style="stop-color:#006DF0"/>
</linearGradient>
<path style="fill:url(#SVGID_1_);" d="M388,440c-4.418,0-8,3.582-8,8v32H76V16h224v72c0,4.418,3.582,8,8,8h72v136
	c0,4.418,3.582,8,8,8s8-3.582,8-8V88.4c-0.018-0.223-0.047-0.444-0.088-0.664c-0.036-2.019-0.843-3.948-2.256-5.392l-79.904-80
	c-0.213-0.159-0.435-0.305-0.664-0.44c-0.515-0.444-1.085-0.82-1.696-1.12c-0.261-0.111-0.528-0.207-0.8-0.288
	c-0.691-0.241-1.413-0.383-2.144-0.424C308.288,0.08,308.152,0,308,0H68c-4.418,0-8,3.582-8,8v480c0,4.418,3.582,8,8,8h320
	c4.418,0,8-3.582,8-8v-40C396,443.582,392.418,440,388,440L388,440z M316,27.32L368.376,80H316V27.32z"/>
<linearGradient id="SVGID_2_" gradientUnits="userSpaceOnUse" x1="-28.4821" y1="563.5171" x2="24.7529" y2="616.7541" gradientTransform="matrix(8 0 0 -8 370.9999 5013)">
	<stop  offset="0" style="stop-color:#003F8A"/>
	<stop  offset="0.518" style="stop-color:#00D7DF"/>
	<stop  offset="1" style="stop-color:#006DF0"/>
</linearGradient>
<path style="fill:url(#SVGID_2_);" d="M428,256H188c-4.418,0-8,3.582-8,8v152c0,4.418,3.582,8,8,8h240c4.418,0,8-3.582,8-8V264
	C436,259.582,432.418,256,428,256z M420,408H196V272h224V408z"/>
<linearGradient id="SVGID_3_" gradientUnits="userSpaceOnUse" x1="-32.9787" y1="568.0237" x2="20.2563" y2="621.2507" gradientTransform="matrix(8 0 0 -8 370.9999 5013)">
	<stop  offset="0" style="stop-color:#003F8A"/>
	<stop  offset="0.518" style="stop-color:#00D7DF"/>
	<stop  offset="1" style="stop-color:#006DF0"/>
</linearGradient>
<path style="fill:url(#SVGID_3_);" d="M217.264,391.512c4.153,1.509,8.742-0.634,10.251-4.787c0.002-0.004,0.003-0.009,0.005-0.013
	l8.48-23.296l8.48,23.32c1.511,4.153,6.103,6.295,10.256,4.784s6.295-6.103,4.784-10.256L244.512,340l15.008-41.264
	c1.511-4.153-0.631-8.745-4.784-10.256s-8.745,0.631-10.256,4.784l-8.48,23.32l-8.48-23.32c-1.511-4.153-6.103-6.295-10.256-4.784
	c-4.153,1.511-6.295,6.103-4.784,10.256L227.488,340l-15.008,41.264C210.973,385.415,213.114,390.002,217.264,391.512
	L217.264,391.512z"/>
<linearGradient id="SVGID_4_" gradientUnits="userSpaceOnUse" x1="-28.4821" y1="563.5171" x2="24.7529" y2="616.7541" gradientTransform="matrix(8 0 0 -8 370.9999 5013)">
	<stop  offset="0" style="stop-color:#003F8A"/>
	<stop  offset="0.518" style="stop-color:#00D7DF"/>
	<stop  offset="1" style="stop-color:#006DF0"/>
</linearGradient>
<path style="fill:url(#SVGID_4_);" d="M284,392c4.418,0,8-3.582,8-8v-80h8v32c0,4.418,3.582,8,8,8s8-3.582,8-8v-32h8v80
	c0,4.418,3.582,8,8,8s8-3.582,8-8v-88c0-4.418-3.582-8-8-8h-48c-4.418,0-8,3.582-8,8v88C276,388.418,279.582,392,284,392z"/>
<linearGradient id="SVGID_5_" gradientUnits="userSpaceOnUse" x1="-23.982" y1="559.017" x2="29.253" y2="612.254" gradientTransform="matrix(8 0 0 -8 370.9999 5013)">
	<stop  offset="0" style="stop-color:#003F8A"/>
	<stop  offset="0.518" style="stop-color:#00D7DF"/>
	<stop  offset="1" style="stop-color:#006DF0"/>
</linearGradient>
<path style="fill:url(#SVGID_5_);" d="M364,392h32c4.418,0,8-3.582,8-8s-3.582-8-8-8h-24v-80c0-4.418-3.582-8-8-8s-8,3.582-8,8v88
	C356,388.418,359.582,392,364,392z"/>
<g>
</g>
<g>
</g>
<g>
</g>
<g>
</g>
<g>
</g>
<g>
</g>
<g>
</g>
<g>
</g>
<g>
</g>
<g>
</g>
<g>
</g>
<g>
</g>
<g>
</g>
<g>
</g>
<g>
</g>
</svg>
